<svg width="20" height="20" viewBox="0 0 20 20" fill="none" xmlns="http://www.w3.org/2000/svg">
<g id="ant-design:twitter-outlined">
<path id="Vector" d="M18.252 4.56837C17.6543 4.82618 17.0039 5.01173 16.334 5.08399C17.0295 4.67078 17.5504 4.01798 17.7988 3.24805C17.1462 3.63631 16.4312 3.90857 15.6855 4.05274C15.3739 3.71959 14.997 3.45419 14.5783 3.27307C14.1596 3.09195 13.7081 2.999 13.252 3.00001C11.4062 3.00001 9.92188 4.4961 9.92188 6.33204C9.92188 6.58985 9.95313 6.84766 10.0039 7.09571C7.24023 6.95118 4.77539 5.63087 3.13672 3.60938C2.83814 4.11937 2.68167 4.70006 2.68359 5.29102C2.68359 6.44727 3.27148 7.46681 4.16797 8.06641C3.63966 8.04561 3.12372 7.9004 2.66211 7.64259V7.6836C2.66211 9.30274 3.80664 10.6445 5.33203 10.9531C5.04562 11.0275 4.75099 11.0656 4.45508 11.0664C4.23828 11.0664 4.0332 11.0449 3.82617 11.0156C4.24805 12.3359 5.47656 13.2949 6.93945 13.3262C5.79492 14.2227 4.36133 14.75 2.80469 14.75C2.52539 14.75 2.26758 14.7402 2 14.709C3.47656 15.6563 5.22852 16.2031 7.11523 16.2031C13.2402 16.2031 16.5918 11.1289 16.5918 6.72462C16.5918 6.58009 16.5918 6.43556 16.582 6.29102C17.2305 5.81641 17.7988 5.22852 18.252 4.56837Z" fill="#C01625"/>
</g>
</svg>
