<svg width="171" height="62" viewBox="0 0 171 62" fill="none" xmlns="http://www.w3.org/2000/svg">
<rect width="171" height="62" rx="7" fill="#0D0D0D"/>
<path d="M116.175 29.7616V33.3126H114.128V35.6414H116.175V43.5541C116.175 46.256 117.298 47.3368 120.125 47.3368C120.622 47.3368 121.095 47.2725 121.509 47.1953V44.8922C121.154 44.9308 120.93 44.9565 120.539 44.9565C119.274 44.9565 118.718 44.3132 118.718 42.8465V35.6414H121.509V33.3126H118.718V29.7616H116.175Z" fill="white"/>
<path d="M128.711 47.5298C132.472 47.5298 134.779 44.7893 134.779 40.2475C134.779 35.7315 132.461 32.9781 128.711 32.9781C124.949 32.9781 122.631 35.7315 122.631 40.2475C122.631 44.7893 124.938 47.5298 128.711 47.5298ZM128.711 45.0723C126.499 45.0723 125.257 43.3097 125.257 40.2475C125.257 37.2111 126.499 35.4356 128.711 35.4356C130.911 35.4356 132.165 37.2111 132.165 40.2475C132.165 43.2968 130.911 45.0723 128.711 45.0723Z" fill="white"/>
<path d="M136.753 47.2596H139.296V38.9866C139.296 37.0181 140.656 35.6929 142.584 35.6929C143.034 35.6929 143.791 35.7829 144.003 35.8601V33.1325C143.731 33.0553 143.246 33.0167 142.868 33.0167C141.188 33.0167 139.757 34.0203 139.39 35.397H139.201V33.2483H136.753V47.2596Z" fill="white"/>
<path d="M150.318 35.3326C152.199 35.3326 153.429 36.7608 153.488 38.9609H146.982C147.124 36.7736 148.437 35.3326 150.318 35.3326ZM153.476 43.4769C153.003 44.5706 151.95 45.1753 150.413 45.1753C148.378 45.1753 147.065 43.6185 146.982 41.161V41.0066H156.079V40.0417C156.079 35.6414 153.914 32.9781 150.33 32.9781C146.698 32.9781 144.392 35.8215 144.392 40.299C144.392 44.7764 146.651 47.5298 150.342 47.5298C153.287 47.5298 155.345 45.9858 155.925 43.4769H153.476Z" fill="white"/>
<path d="M99.4969 42.0854C99.6931 45.526 102.329 47.7263 106.252 47.7263C110.445 47.7263 113.069 45.4193 113.069 41.7387C113.069 38.8449 111.573 37.2447 107.944 36.3245L105.995 35.8044C103.69 35.2177 102.758 34.4309 102.758 33.0573C102.758 31.3237 104.205 30.1902 106.375 30.1902C108.434 30.1902 109.857 31.2971 110.114 33.0707H112.787C112.627 29.8302 110.004 27.5498 106.412 27.5498C102.55 27.5498 99.9751 29.8302 99.9751 33.2574C99.9751 36.0845 101.434 37.7648 104.634 38.5782L106.914 39.1783C109.256 39.7784 110.286 40.6586 110.286 42.1254C110.286 43.8324 108.667 45.0726 106.461 45.0726C104.094 45.0726 102.452 43.9124 102.219 42.0854H99.4969Z" fill="white"/>
<path d="M73.1525 33.0167C71.4018 33.0167 69.8878 33.9688 69.1071 35.5642H68.9178V33.2483H66.4693V51.9172H69.0124V45.1367H69.2135C69.8878 46.6163 71.3427 47.4912 73.1761 47.4912C76.429 47.4912 78.499 44.6992 78.499 40.2475C78.499 35.7958 76.429 33.0167 73.1525 33.0167ZM72.4309 45.008C70.3018 45.008 68.9651 43.181 68.9651 40.2604C68.9651 37.3269 70.3018 35.4999 72.4427 35.4999C74.5955 35.4999 75.8849 37.2883 75.8849 40.2475C75.8849 43.2196 74.5955 45.008 72.4309 45.008Z" fill="white"/>
<path d="M87.3979 33.0167C85.6473 33.0167 84.1332 33.9688 83.3525 35.5642H83.1632V33.2483H80.7147V51.9172H83.2579V45.1367H83.459C84.1332 46.6163 85.5881 47.4912 87.4216 47.4912C90.6744 47.4912 92.7444 44.6992 92.7444 40.2475C92.7444 35.7958 90.6744 33.0167 87.3979 33.0167ZM86.6763 45.008C84.5472 45.008 83.2106 43.181 83.2106 40.2604C83.2106 37.3269 84.5472 35.4999 86.6882 35.4999C88.841 35.4999 90.1303 37.2883 90.1303 40.2475C90.1303 43.2196 88.841 45.008 86.6763 45.008Z" fill="white"/>
<path d="M61.9064 47.2596H64.8243L58.4369 28.0165H55.4822L49.0947 47.2596H51.9145L53.5451 42.1521H60.2881L61.9064 47.2596ZM56.8185 31.5104H57.027L59.5893 39.6451H54.2439L56.8185 31.5104Z" fill="white"/>
<path d="M50.8027 13.5019V22.7849H53.8841C56.4272 22.7849 57.8999 21.0801 57.8999 18.1145C57.8999 15.1938 56.4154 13.5019 53.8841 13.5019H50.8027ZM52.1275 14.8143H53.7362C55.5046 14.8143 56.5514 16.0366 56.5514 18.1338C56.5514 20.2631 55.5224 21.4725 53.7362 21.4725H52.1275V14.8143Z" fill="white"/>
<path d="M62.4102 22.92C64.2909 22.92 65.4442 21.5497 65.4442 19.2788C65.4442 17.0208 64.285 15.6441 62.4102 15.6441C60.5294 15.6441 59.3702 17.0208 59.3702 19.2788C59.3702 21.5497 60.5235 22.92 62.4102 22.92ZM62.4102 21.6913C61.3042 21.6913 60.6832 20.8099 60.6832 19.2788C60.6832 17.7606 61.3042 16.8729 62.4102 16.8729C63.5102 16.8729 64.1371 17.7606 64.1371 19.2788C64.1371 20.8035 63.5102 21.6913 62.4102 21.6913Z" fill="white"/>
<path d="M75.2655 15.7792H73.9939L72.8465 21.1251H72.746L71.4212 15.7792H70.2028L68.878 21.1251H68.7834L67.6301 15.7792H66.3408L68.1151 22.7849H69.4222L70.747 17.6255H70.8475L72.1782 22.7849H73.4971L75.2655 15.7792Z" fill="white"/>
<path d="M76.7299 22.7849H78.0014V18.687C78.0014 17.5934 78.5988 16.9115 79.5392 16.9115C80.4795 16.9115 80.929 17.4711 80.929 18.5969V22.7849H82.2006V18.2495C82.2006 16.5834 81.4081 15.6441 79.9709 15.6441C79.001 15.6441 78.3622 16.1138 78.0488 16.8922H77.9541V15.7792H76.7299V22.7849Z" fill="white"/>
<path d="M84.2032 22.7849H85.4748V13.0452H84.2032V22.7849Z" fill="white"/>
<path d="M90.2571 22.92C92.1378 22.92 93.2911 21.5497 93.2911 19.2788C93.2911 17.0208 92.1319 15.6441 90.2571 15.6441C88.3763 15.6441 87.2171 17.0208 87.2171 19.2788C87.2171 21.5497 88.3704 22.92 90.2571 22.92ZM90.2571 21.6913C89.1511 21.6913 88.5301 20.8099 88.5301 19.2788C88.5301 17.7606 89.1511 16.8729 90.2571 16.8729C91.3571 16.8729 91.9841 17.7606 91.9841 19.2788C91.9841 20.8035 91.3571 21.6913 90.2571 21.6913Z" fill="white"/>
<path d="M97.0798 21.7363C96.3878 21.7363 95.8851 21.3696 95.8851 20.7392C95.8851 20.1216 96.2873 19.7935 97.1744 19.7292L98.7477 19.6198V20.2052C98.7477 21.0737 98.0379 21.7363 97.0798 21.7363ZM96.7545 22.9007C97.6003 22.9007 98.3041 22.5018 98.6885 21.8006H98.7891V22.7849H100.013V17.9987C100.013 16.519 99.1025 15.6441 97.4879 15.6441C96.0271 15.6441 94.9862 16.4161 94.856 17.6191H96.0862C96.2282 17.1238 96.719 16.8407 97.4288 16.8407C98.2982 16.8407 98.7477 17.2589 98.7477 17.9987V18.6034L97.0029 18.7127C95.4711 18.8157 94.6076 19.5426 94.6076 20.8035C94.6076 22.0837 95.5125 22.9007 96.7545 22.9007Z" fill="white"/>
<path d="M104.328 22.9007C105.216 22.9007 105.967 22.4439 106.351 21.6784H106.452V22.7849H107.67V13.0452H106.398V16.8922H106.304C105.955 16.1202 105.21 15.6634 104.328 15.6634C102.702 15.6634 101.655 17.0659 101.655 19.2788C101.655 21.4983 102.69 22.9007 104.328 22.9007ZM104.689 16.905C105.754 16.905 106.422 17.825 106.422 19.2853C106.422 20.752 105.76 21.6591 104.689 21.6591C103.613 21.6591 102.968 20.7649 102.968 19.2788C102.968 17.8057 103.619 16.905 104.689 16.905Z" fill="white"/>
<path d="M115.916 22.92C117.796 22.92 118.95 21.5497 118.95 19.2788C118.95 17.0208 117.791 15.6441 115.916 15.6441C114.035 15.6441 112.876 17.0208 112.876 19.2788C112.876 21.5497 114.029 22.92 115.916 22.92ZM115.916 21.6913C114.81 21.6913 114.189 20.8099 114.189 19.2788C114.189 17.7606 114.81 16.8729 115.916 16.8729C117.016 16.8729 117.643 17.7606 117.643 19.2788C117.643 20.8035 117.016 21.6913 115.916 21.6913Z" fill="white"/>
<path d="M120.633 22.7849H121.905V18.687C121.905 17.5934 122.502 16.9115 123.442 16.9115C124.383 16.9115 124.832 17.4711 124.832 18.5969V22.7849H126.104V18.2495C126.104 16.5834 125.311 15.6441 123.874 15.6441C122.904 15.6441 122.265 16.1138 121.952 16.8922H121.857V15.7792H120.633V22.7849Z" fill="white"/>
<path d="M131.96 14.0359V15.8114H130.937V16.9758H131.96V20.9322C131.96 22.2831 132.522 22.8235 133.935 22.8235C134.184 22.8235 134.42 22.7913 134.627 22.7527V21.6012C134.45 21.6205 134.338 21.6334 134.142 21.6334C133.51 21.6334 133.232 21.3117 133.232 20.5783V16.9758H134.627V15.8114H133.232V14.0359H131.96Z" fill="white"/>
<path d="M136.334 22.7849H137.606V18.6934C137.606 17.632 138.185 16.9179 139.226 16.9179C140.125 16.9179 140.604 17.484 140.604 18.6034V22.7849H141.876V18.2624C141.876 16.5962 141.03 15.6506 139.658 15.6506C138.688 15.6506 138.008 16.1202 137.695 16.905H137.594V13.0452H136.334V22.7849Z" fill="white"/>
<path d="M146.463 16.8214C147.403 16.8214 148.019 17.5355 148.048 18.6355H144.795C144.866 17.5419 145.523 16.8214 146.463 16.8214ZM148.042 20.8936C147.806 21.4404 147.279 21.7427 146.51 21.7427C145.493 21.7427 144.837 20.9643 144.795 19.7356V19.6584H149.343V19.1759C149.343 16.9758 148.261 15.6441 146.469 15.6441C144.653 15.6441 143.5 17.0659 143.5 19.3046C143.5 21.5433 144.63 22.92 146.475 22.92C147.948 22.92 148.977 22.148 149.266 20.8936H148.042Z" fill="white"/>
<path d="M35.2956 31.4662C35.3265 28.8606 36.6129 26.3952 38.6537 25.0305C37.3663 23.0305 35.2099 21.7624 32.9663 21.6861C30.5734 21.4129 28.2536 23.2435 27.0342 23.2435C25.7912 23.2435 23.9138 21.7132 21.8921 21.7584C19.2569 21.851 16.8003 23.4807 15.5182 25.9866C12.7622 31.1767 14.8179 38.8043 17.4579 42.9995C18.7787 45.0538 20.3224 47.3485 22.3423 47.2672C24.3188 47.178 25.057 45.8962 27.4429 45.8962C29.8066 45.8962 30.4992 47.2672 32.5601 47.2154C34.681 47.178 36.0173 45.152 37.2918 43.0783C38.2408 41.6145 38.9711 39.9967 39.4556 38.2849C36.9631 37.1382 35.2986 34.4098 35.2956 31.4662Z" fill="white"/>
<path d="M31.403 18.9271C32.5594 17.417 33.1292 15.4762 32.9912 13.5166C31.2245 13.7184 29.5925 14.6369 28.4204 16.089C27.2743 17.5078 26.6779 19.4145 26.7906 21.2992C28.558 21.3189 30.2955 20.4254 31.403 18.9271Z" fill="white"/>
</svg>
