<svg width="54" height="54" viewBox="0 0 54 54" fill="none" xmlns="http://www.w3.org/2000/svg">
<g id="car-svgrepo-com 1">
<path id="Vector" fill-rule="evenodd" clip-rule="evenodd" d="M4.50008 33.3068V47.8125C4.50008 48.744 5.25608 49.5 6.18758 49.5H9.81908C10.2187 49.5001 10.6054 49.3583 10.9103 49.1C11.2152 48.8416 11.4185 48.4835 11.4841 48.0892L12.3751 42.75H41.6251L42.5138 48.0892C42.5794 48.4835 42.7827 48.8416 43.0876 49.1C43.3925 49.3583 43.7792 49.5001 44.1788 49.5H47.8126C48.2601 49.5 48.6894 49.3222 49.0058 49.0057C49.3223 48.6893 49.5001 48.2601 49.5001 47.8125V33.3068C49.5002 30.6617 48.7173 28.0758 47.2501 25.875L45.4951 23.2425C45.3386 23.0081 45.2045 22.7595 45.0946 22.5H47.3311C47.6446 22.5 47.952 22.4126 48.2187 22.2477C48.4853 22.0828 48.7008 21.8468 48.8408 21.5662L49.4033 20.4412C49.5317 20.1841 49.5923 19.8985 49.5793 19.6115C49.5664 19.3244 49.4803 19.0454 49.3293 18.8009C49.1783 18.5564 48.9674 18.3545 48.7166 18.2143C48.4657 18.0742 48.1832 18.0004 47.8958 18H44.1001L43.4026 14.5215C43.1904 13.4621 42.6775 12.4862 41.9254 11.7106C41.1733 10.9349 40.2137 10.3922 39.1613 10.1475C35.8718 9.3825 31.8173 9 27.0001 9C22.1806 9 18.1283 9.3825 14.8388 10.1475C13.7861 10.3919 12.826 10.9343 12.0734 11.71C11.3209 12.4857 10.8077 13.4618 10.5953 14.5215L9.89783 18H6.10658C5.81922 18.0004 5.53672 18.0742 5.28585 18.2143C5.03498 18.3545 4.82406 18.5564 4.67308 18.8009C4.5221 19.0454 4.43605 19.3244 4.4231 19.6115C4.41015 19.8985 4.47072 20.1841 4.59908 20.4412L5.16158 21.5662C5.30146 21.8464 5.51656 22.0822 5.7828 22.2471C6.04903 22.412 6.35591 22.4996 6.66908 22.5H8.90783C8.79789 22.7595 8.6638 23.0081 8.50733 23.2425L6.75008 25.875C5.28308 28.0755 4.50008 30.6608 4.50008 33.3068ZM40.4123 22.509C40.5673 23.2872 40.8246 24.0415 41.1773 24.7523H12.8228C13.1761 24.0435 13.4326 23.2897 13.5878 22.509L15.0098 15.4058C15.0518 15.1934 15.1542 14.9976 15.3046 14.842C15.4551 14.6863 15.6473 14.5774 15.8581 14.5282C18.7786 13.8532 22.5001 13.5 27.0001 13.5C31.5001 13.5 35.2216 13.851 38.1421 14.5305C38.353 14.5791 38.5455 14.6875 38.6963 14.8428C38.8472 14.998 38.95 15.1935 38.9926 15.4058L40.4123 22.509ZM12.3751 36C13.2702 36 14.1286 35.6444 14.7616 35.0115C15.3945 34.3786 15.7501 33.5201 15.7501 32.625C15.7501 31.7299 15.3945 30.8714 14.7616 30.2385C14.1286 29.6056 13.2702 29.25 12.3751 29.25C11.48 29.25 10.6215 29.6056 9.98859 30.2385C9.35566 30.8714 9.00008 31.7299 9.00008 32.625C9.00008 33.5201 9.35566 34.3786 9.98859 35.0115C10.6215 35.6444 11.48 36 12.3751 36ZM45.0001 32.625C45.0001 33.5201 44.6445 34.3786 44.0116 35.0115C43.3786 35.6444 42.5202 36 41.6251 36C40.73 36 39.8715 35.6444 39.2386 35.0115C38.6057 34.3786 38.2501 33.5201 38.2501 32.625C38.2501 31.7299 38.6057 30.8714 39.2386 30.2385C39.8715 29.6056 40.73 29.25 41.6251 29.25C42.5202 29.25 43.3786 29.6056 44.0116 30.2385C44.6445 30.8714 45.0001 31.7299 45.0001 32.625Z" fill="black"/>
</g>
</svg>
