<svg width="65" height="65" viewBox="0 0 65 65" fill="none" xmlns="http://www.w3.org/2000/svg">
<g id="chart-bar-vertical-svgrepo-com 4" clip-path="url(#clip0_183_2047)">
<g id="Layer 2">
<g id="icons Q2">
<path id="Vector" d="M5.41675 56.8751C5.41675 56.1568 5.70209 55.4679 6.21 54.96C6.71791 54.4521 7.40679 54.1667 8.12508 54.1667H56.8751C57.5934 54.1667 58.2823 54.4521 58.7902 54.96C59.2981 55.4679 59.5834 56.1568 59.5834 56.8751C59.5834 57.5934 59.2981 58.2823 58.7902 58.7902C58.2823 59.2981 57.5934 59.5834 56.8751 59.5834H8.12508C7.40679 59.5834 6.71791 59.2981 6.21 58.7902C5.70209 58.2823 5.41675 57.5934 5.41675 56.8751ZM18.9584 27.0834C18.9584 26.3651 18.6731 25.6762 18.1652 25.1683C17.6573 24.6604 16.9684 24.3751 16.2501 24.3751C15.5318 24.3751 14.8429 24.6604 14.335 25.1683C13.8271 25.6762 13.5417 26.3651 13.5417 27.0834V48.7501H18.9584V27.0834ZM51.4584 8.12508C51.4584 7.40679 51.1731 6.71791 50.6652 6.21C50.1573 5.70209 49.4684 5.41675 48.7501 5.41675C48.0318 5.41675 47.3429 5.70209 46.835 6.21C46.3271 6.71791 46.0417 7.40679 46.0417 8.12508V48.7501H51.4584V8.12508ZM29.7917 18.9584C29.7917 18.2401 29.5064 17.5512 28.9985 17.0433C28.4906 16.5354 27.8017 16.2501 27.0834 16.2501C26.3651 16.2501 25.6762 16.5354 25.1683 17.0433C24.6604 17.5512 24.3751 18.2401 24.3751 18.9584V48.7501H29.7917V18.9584ZM40.6251 31.1459C40.6251 30.4276 40.3397 29.7387 39.8318 29.2308C39.3239 28.7229 38.635 28.4376 37.9167 28.4376C37.1985 28.4376 36.5096 28.7229 36.0017 29.2308C35.4938 29.7387 35.2084 30.4276 35.2084 31.1459V48.7501H40.6251V31.1459Z" fill="#0D0D0D"/>
</g>
</g>
</g>
<defs>
<clipPath id="clip0_183_2047">
<rect width="65" height="65" fill="white"/>
</clipPath>
</defs>
</svg>
