<svg width="23" height="23" viewBox="0 0 23 23" fill="none" xmlns="http://www.w3.org/2000/svg">
<g id="ci:instagram">
<path id="Vector" d="M11.6286 19.9187C9.37223 19.9187 9.10623 19.9068 8.22569 19.8682C7.53902 19.8457 6.86124 19.7061 6.22154 19.4555C5.67412 19.2424 5.17698 18.9179 4.76169 18.5024C4.34641 18.087 4.02205 17.5897 3.80922 17.0422C3.56827 16.4002 3.43831 15.7219 3.4249 15.0363C3.37354 14.1575 3.37354 13.8695 3.37354 11.6306C3.37354 9.36776 3.38546 9.1036 3.4249 8.22764C3.4386 7.54295 3.56856 6.86556 3.80922 6.22441C4.0218 5.67621 4.34638 5.17838 4.76222 4.7627C5.17806 4.34702 5.67601 4.02263 6.22429 3.81026C6.86511 3.56829 7.54267 3.43799 8.22752 3.42502C9.10348 3.37549 9.39149 3.37549 11.6286 3.37549C13.9034 3.37549 14.1648 3.38741 15.0315 3.42502C15.7176 3.43786 16.3982 3.56811 17.0403 3.81026C17.5884 4.02288 18.0863 4.34735 18.5021 4.763C18.9179 5.17865 19.2425 5.67636 19.4554 6.22441C19.7003 6.87564 19.8314 7.56357 19.8415 8.25791C19.8929 9.13662 19.8929 9.42371 19.8929 11.6618C19.8929 13.8998 19.88 14.1933 19.8415 15.0619C19.8278 15.7482 19.6975 16.4271 19.4563 17.0698C19.2429 17.6176 18.9179 18.1152 18.502 18.5308C18.0861 18.9464 17.5883 19.271 17.0403 19.4839C16.3982 19.7242 15.7204 19.8545 15.0352 19.8682C14.1593 19.9187 13.8722 19.9187 11.6286 19.9187ZM11.5974 4.82747C9.35389 4.82747 9.12091 4.83847 8.24495 4.87791C7.72181 4.88475 7.20371 4.98124 6.71318 5.16317C6.35539 5.30031 6.03032 5.5109 5.7589 5.78137C5.48749 6.05183 5.27576 6.37617 5.13737 6.73347C4.95393 7.22878 4.85762 7.75252 4.85211 8.28084C4.8035 9.16964 4.8035 9.40262 4.8035 11.6306C4.8035 13.8319 4.81175 14.0988 4.85211 14.9821C4.86037 15.505 4.95668 16.0232 5.13737 16.5139C5.41804 17.2358 5.9904 17.8063 6.71409 18.0833C7.20399 18.2664 7.72199 18.3629 8.24495 18.3686C9.13283 18.4199 9.36673 18.4199 11.5974 18.4199C13.8474 18.4199 14.0804 18.4089 14.949 18.3686C15.4722 18.3622 15.9904 18.2657 16.4808 18.0833C16.8366 17.9451 17.1599 17.7344 17.4299 17.4645C17.6999 17.1946 17.9108 16.8715 18.0492 16.5157C18.2327 16.0204 18.329 15.4958 18.3345 14.9675H18.3446C18.384 14.0906 18.384 13.8567 18.384 11.6159C18.384 9.3751 18.3739 9.13937 18.3345 8.26341C18.3262 7.74101 18.2298 7.22376 18.0492 6.73347C17.9112 6.37717 17.7004 6.05353 17.4303 5.78317C17.1603 5.51282 16.8369 5.30167 16.4808 5.16317C15.9905 4.98035 15.4722 4.88384 14.949 4.87791C14.062 4.82747 13.83 4.82747 11.5974 4.82747ZM11.6286 15.8673C10.7899 15.8678 9.96981 15.6196 9.27215 15.154C8.57448 14.6885 8.03055 14.0265 7.70916 13.2517C7.38777 12.477 7.30335 11.6244 7.46658 10.8017C7.62981 9.97897 8.03336 9.22315 8.62618 8.62981C9.21901 8.03648 9.97448 7.63228 10.797 7.46833C11.6196 7.30439 12.4723 7.38807 13.2473 7.70879C14.0223 8.02952 14.6848 8.57287 15.151 9.27013C15.6171 9.96739 15.866 10.7872 15.8662 11.626C15.8648 12.7498 15.418 13.8271 14.6237 14.6221C13.8294 15.4171 12.7524 15.8648 11.6286 15.8673ZM11.6286 8.87246C11.0844 8.87246 10.5524 9.03384 10.0999 9.3362C9.64735 9.63856 9.29465 10.0683 9.08638 10.5711C8.87812 11.0739 8.82362 11.6272 8.9298 12.161C9.03597 12.6948 9.29805 13.1851 9.68288 13.5699C10.0677 13.9547 10.558 14.2168 11.0918 14.323C11.6256 14.4291 12.1788 14.3747 12.6816 14.1664C13.1845 13.9581 13.6142 13.6054 13.9166 13.1529C14.2189 12.7004 14.3803 12.1684 14.3803 11.6242C14.3786 10.8949 14.0882 10.196 13.5725 9.68028C13.0568 9.16461 12.3579 8.87415 11.6286 8.87246ZM16.0313 8.21847C15.9015 8.21799 15.773 8.19194 15.6532 8.1418C15.5334 8.09166 15.4247 8.01843 15.3332 7.92627C15.1485 7.74015 15.0453 7.48827 15.0462 7.22603C15.0472 6.96379 15.1523 6.71267 15.3384 6.52793C15.5245 6.34319 15.7764 6.23995 16.0387 6.24092C16.3009 6.24189 16.552 6.347 16.7368 6.53312C16.9215 6.71924 17.0247 6.97112 17.0238 7.23336C17.0228 7.4956 16.9177 7.74672 16.7316 7.93146C16.5455 8.1162 16.2936 8.21944 16.0313 8.21847Z" fill="#C01625"/>
</g>
</svg>
