<svg width="54" height="54" viewBox="0 0 54 54" fill="none" xmlns="http://www.w3.org/2000/svg">
<g id="digital-content-content-read-look-at-pictures-svgrepo-com 1">
<path id="Vector" d="M41.2172 30.5859C40.943 29.7633 40.1625 29.1516 39.2977 29.1516H38.3063V5.46328C38.3063 3.0164 36.3446 1.05469 33.8977 1.05469H10.2516C7.80473 1.05469 5.84302 3.0164 5.84302 5.46328V43.643C5.84302 46.0898 7.80473 48.0516 10.2516 48.0516H33.8555C34.1297 48.0516 34.3407 48.2836 34.3407 48.5367C34.3407 48.8109 34.1086 49.0219 33.8555 49.0219H24.4688L31.7461 53.2406H48.1782L41.2172 30.5859ZM22.1063 46.2164C21.4524 46.2164 20.9672 45.7313 20.9672 45.0773C20.9672 44.4234 21.4524 43.9383 22.1063 43.9383C22.7602 43.9383 23.2454 44.4234 23.2454 45.0773C23.2454 45.7313 22.7813 46.2164 22.1063 46.2164ZM35.1211 29.1727H30.8602C29.7633 29.1727 28.8352 30.1008 28.8352 31.1977C28.8352 32.2945 29.7633 33.2227 30.8602 33.2227H35.1211V42.082H9.07036V6.98203H35.1211V29.1727ZM27.7172 18.4359L22.5704 21.1781L18.1618 12.15L11.7071 24.743H31.8516L27.7172 18.4359ZM29.2993 12.8039C30.5649 12.8039 31.5985 13.8375 31.5985 15.1031C31.5985 16.3688 30.5649 17.4023 29.2993 17.4023C28.0336 17.4023 27 16.3688 27 15.1031C27 13.8375 28.0336 12.8039 29.2993 12.8039ZM10.568 25.5234H33.6657V27.0844H10.568V25.5234Z" fill="black"/>
</g>
</svg>
