<svg width="54" height="54" viewBox="0 0 54 54" fill="none" xmlns="http://www.w3.org/2000/svg">
<g id="flight-plane-svgrepo-com 1" clip-path="url(#clip0_289_6317)">
<path id="flight plane" d="M50.4504 10.9018C52.6632 7.93478 53.9936 4.85437 54.0001 2.65355C54.0263 2.06321 53.8813 1.47789 53.5824 0.968117C53.4513 0.747896 53.2684 0.563066 53.0495 0.42968C52.5359 0.119482 51.9413 -0.0301407 51.342 2.27033e-05C49.1467 2.27033e-05 46.0653 1.32955 43.0974 3.54882C40.1882 5.93826 37.4733 8.55483 34.9782 11.3739C34.4146 11.9676 33.8202 12.5919 33.1951 13.2465L26.7631 11.3186L26.7816 11.3001C27.0476 11.0293 27.1964 10.6646 27.1955 10.285C27.1946 9.90532 27.0443 9.54128 26.777 9.27168L25.6162 8.10904C25.3449 7.8373 24.9767 7.68442 24.5927 7.684C24.4041 7.68354 24.2173 7.72067 24.0432 7.79317C23.8691 7.86567 23.7111 7.9721 23.5785 8.10628L21.8406 9.84517L20.9186 9.56858C21.1342 9.29184 21.2414 8.94594 21.2202 8.59576C21.199 8.24558 21.0507 7.91519 20.8033 7.6665L19.636 6.50015C19.3645 6.22973 18.9967 6.0782 18.6135 6.07882C18.4249 6.078 18.238 6.11491 18.0638 6.18743C17.8896 6.25995 17.7317 6.36657 17.5994 6.50105L16.0042 8.09616L9.46355 6.13689C9.31176 6.09229 9.15434 6.06991 8.99613 6.07049C8.54475 6.06962 8.1109 6.24534 7.78735 6.56008L5.48791 8.85958C5.23262 9.10971 5.08702 9.45093 5.08312 9.80831C5.08003 10.0511 5.14387 10.29 5.26765 10.4988C5.39142 10.7076 5.57033 10.8783 5.78475 10.9922L19.5393 18.6761C19.6577 18.7508 19.7694 18.8356 19.873 18.9297L23.7943 22.8501C20.1266 26.7142 16.859 30.4566 14.3124 33.7122C14.0745 34.0146 13.8514 34.3106 13.6283 34.6019L2.98739 33.6357C2.92622 33.6281 2.86462 33.6244 2.80298 33.6246C2.31099 33.6345 1.84074 33.829 1.48548 34.1695L0.413163 35.24C0.285018 35.3629 0.182642 35.5101 0.112037 35.673C0.0414311 35.8359 0.00402707 36.0112 0.00196329 36.1887C0.000964851 36.442 0.0735303 36.6901 0.210855 36.9029C0.34818 37.1156 0.544343 37.2839 0.775516 37.3873L8.26129 40.9435C8.36375 41.0019 8.45983 41.0708 8.54801 41.1491L9.16946 41.765C8.99226 42.2253 8.89105 42.7115 8.86979 43.2043C8.85968 43.4581 8.90074 43.7113 8.99056 43.9489C9.08037 44.1865 9.21711 44.4036 9.39258 44.5873L9.41932 44.6113L9.42669 44.6159C9.61019 44.7893 9.82649 44.9242 10.0629 45.0129C10.2993 45.1015 10.551 45.1421 10.8032 45.1322C11.2918 45.1101 11.7737 45.0099 12.2305 44.8353L12.8611 45.4641C12.9348 45.55 13.0003 45.6426 13.0566 45.7407L16.6045 53.209C16.7075 53.4402 16.8746 53.637 17.0861 53.776C17.2975 53.9151 17.5445 53.9906 17.7976 53.9935H17.8049C17.9811 53.9929 18.1554 53.9575 18.3178 53.8891C18.4802 53.8207 18.6274 53.7208 18.7509 53.5952L19.8499 52.4889C20.182 52.131 20.3691 51.6623 20.3746 51.1741C20.3746 51.1132 20.3746 51.0662 20.37 51.0413L19.4009 40.3636C19.6932 40.1441 19.9874 39.9173 20.2907 39.6822C23.5509 37.1319 27.2979 33.8616 31.151 30.1984L35.075 34.1262C35.1714 34.2296 35.2573 34.3423 35.3314 34.4627L43.0006 48.1923C43.0985 48.3792 43.2393 48.5404 43.4113 48.6625C43.5834 48.7847 43.782 48.8644 43.9907 48.8951C44.1995 48.9259 44.4126 48.9068 44.6126 48.8395C44.8126 48.7721 44.9938 48.6584 45.1415 48.5077L47.4575 46.1934C47.7643 45.8663 47.9339 45.434 47.9315 44.9856C47.9316 44.8325 47.9102 44.68 47.8678 44.5329L45.9086 37.9913L47.5027 36.3934C47.7715 36.1233 47.9223 35.7579 47.9223 35.3769C47.9223 34.9959 47.7715 34.6304 47.5027 34.3604L46.3336 33.1922C46.0859 32.9438 45.7558 32.7945 45.4056 32.7726C45.0554 32.7507 44.7092 32.8576 44.4324 33.0732L44.1558 32.1559L45.8957 30.417C46.1642 30.1451 46.3149 29.7784 46.3152 29.3963C46.316 29.2079 46.2794 29.0211 46.2074 28.847C46.1354 28.6729 46.0294 28.5149 45.8957 28.3821L44.7321 27.2185C44.5982 27.0838 44.439 26.9769 44.2636 26.9039C44.0882 26.8309 43.9 26.7934 43.71 26.7934C43.5201 26.7934 43.332 26.8309 43.1566 26.9039C42.9812 26.9769 42.822 27.0838 42.688 27.2185L42.6761 27.2296L40.75 20.7977C41.4151 20.1634 42.0487 19.561 42.6511 18.9905C46.1409 15.6842 48.6608 13.2935 50.4504 10.9018Z" fill="black"/>
</g>
<defs>
<clipPath id="clip0_289_6317">
<rect width="54" height="54" fill="white"/>
</clipPath>
</defs>
</svg>
