<svg width="179" height="62" viewBox="0 0 179 62" fill="none" xmlns="http://www.w3.org/2000/svg">
<rect width="179" height="62" rx="6" fill="#0D0D0D"/>
<path d="M141.787 46.5001H144.262V27.1226H141.787V46.5001ZM164.072 34.1032L161.236 42.504H161.151L158.208 34.1032H155.543L159.958 45.8444L157.44 52.3761H160.02L166.824 34.1032H164.072ZM150.04 44.2992C149.231 44.2992 148.1 43.8251 148.1 42.6536C148.1 41.158 149.508 40.5846 150.723 40.5846C151.81 40.5846 152.323 40.8584 152.983 41.2325C152.791 43.0277 151.469 44.2992 150.04 44.2992ZM150.34 33.6792C148.548 33.6792 146.693 34.6019 145.926 36.6461L148.121 37.7178C148.591 36.6461 149.464 36.2973 150.382 36.2973C151.662 36.2973 152.962 37.194 152.983 38.79V38.9892C152.535 38.6901 151.575 38.2415 150.403 38.2415C148.035 38.2415 145.626 39.7617 145.626 42.6038C145.626 45.1965 147.567 46.867 149.742 46.867C151.404 46.867 152.323 45.9944 152.897 44.9719H152.983V46.4686H155.373V39.0388C155.373 35.5986 153.174 33.6792 150.34 33.6792ZM135.049 36.4619H131.53V29.82H135.049C136.899 29.82 137.949 31.6098 137.949 33.1409C137.949 34.6426 136.899 36.4619 135.049 36.4619ZM134.985 27.1226H129.057V46.5001H131.53V39.1588H134.985C137.727 39.1588 140.423 36.8386 140.423 33.1409C140.423 29.444 137.727 27.1226 134.985 27.1226ZM102.657 44.3028C100.948 44.3028 99.5176 42.6292 99.5176 40.3328C99.5176 38.0096 100.948 36.3124 102.657 36.3124C104.345 36.3124 105.669 38.0096 105.669 40.3328C105.669 42.6292 104.345 44.3028 102.657 44.3028ZM105.498 35.1882H105.413C104.858 34.4142 103.789 33.715 102.444 33.715C99.6239 33.715 97.0394 36.6121 97.0394 40.3328C97.0394 44.028 99.6239 46.8997 102.444 46.8997C103.789 46.8997 104.858 46.2003 105.413 45.4017H105.498V46.3499C105.498 48.8729 104.345 50.2207 102.487 50.2207C100.97 50.2207 100.031 48.9474 99.6456 47.8739L97.4885 48.9225C98.1074 50.6699 99.7518 52.8181 102.487 52.8181C105.392 52.8181 107.849 50.8201 107.849 45.9503V34.1146H105.498V35.1882ZM109.558 46.5001H112.035V27.1226H109.558V46.5001ZM115.688 40.1075C115.624 37.5603 117.376 36.2621 118.636 36.2621C119.619 36.2621 120.451 36.8367 120.73 37.6602L115.688 40.1075ZM123.378 37.9096C122.908 36.4371 121.477 33.715 118.55 33.715C115.645 33.715 113.231 36.3869 113.231 40.3073C113.231 44.0032 115.624 46.8997 118.827 46.8997C121.412 46.8997 122.908 45.0524 123.528 43.9782L121.605 42.4797C120.964 43.5786 120.089 44.3028 118.827 44.3028C117.568 44.3028 116.67 43.6284 116.094 42.3048L123.634 38.6592L123.378 37.9096ZM63.3029 35.7378V38.5344H69.0276C68.8567 40.1075 68.4081 41.2561 67.7245 42.0553C66.8911 43.0288 65.588 44.103 63.3029 44.103C59.7782 44.103 57.0228 40.7819 57.0228 36.6617C57.0228 32.5415 59.7782 29.22 63.3029 29.22C65.2041 29.22 66.5923 30.0942 67.6177 31.218L69.3058 29.2448C67.8742 27.6469 65.9733 26.4234 63.3029 26.4234C58.4745 26.4234 54.416 31.0182 54.416 36.6617C54.416 42.3048 58.4745 46.8997 63.3029 46.8997C65.9086 46.8997 67.8742 45.9007 69.412 44.028C70.9927 42.18 71.4843 39.5832 71.4843 37.4853C71.4843 36.8367 71.4412 36.2373 71.3558 35.7378H63.3029ZM77.9927 44.3028C76.2834 44.3028 74.8094 42.6547 74.8094 40.3073C74.8094 37.9351 76.2834 36.3124 77.9927 36.3124C79.7013 36.3124 81.1753 37.9351 81.1753 40.3073C81.1753 42.6547 79.7013 44.3028 77.9927 44.3028ZM77.9927 33.715C74.8731 33.715 72.3315 36.4867 72.3315 40.3073C72.3315 44.103 74.8731 46.8997 77.9927 46.8997C81.1111 46.8997 83.6532 44.103 83.6532 40.3073C83.6532 36.4867 81.1111 33.715 77.9927 33.715ZM90.3408 44.3028C88.6327 44.3028 87.1582 42.6547 87.1582 40.3073C87.1582 37.9351 88.6327 36.3124 90.3408 36.3124C92.05 36.3124 93.5235 37.9351 93.5235 40.3073C93.5235 42.6547 92.05 44.3028 90.3408 44.3028ZM90.3408 33.715C87.2223 33.715 84.6808 36.4867 84.6808 40.3073C84.6808 44.103 87.2223 46.8997 90.3408 46.8997C93.4604 46.8997 96.002 44.103 96.002 40.3073C96.002 36.4867 93.4604 33.715 90.3408 33.715Z" fill="white"/>
<path d="M58.9735 20.5132C57.7847 20.5132 56.7622 20.0242 55.9379 19.0607C55.113 18.0965 54.6953 16.8892 54.6953 15.4854C54.6953 14.0815 55.1133 12.8764 55.9379 11.9101C56.7622 10.9464 57.7848 10.4576 58.9735 10.4576C59.5791 10.4576 60.1443 10.5798 60.6845 10.8345C61.2249 11.0891 61.667 11.4426 62.0151 11.9052L62.0972 12.0145L61.1698 13.0983L61.0771 12.9651C60.8463 12.6335 60.5526 12.3759 60.1806 12.1886C59.8098 12.0018 59.4038 11.9155 58.9735 11.9155C58.1362 11.9155 57.4415 12.2479 56.8613 12.9236C56.8612 12.9238 56.8609 12.9238 56.8608 12.9239C56.2938 13.6133 56.0088 14.4526 56.0088 15.4854C56.0088 16.519 56.2942 17.3584 56.8618 18.048C57.442 18.7234 58.1367 19.0576 58.9735 19.0576C59.7399 19.0576 60.3739 18.8075 60.8723 18.3123H60.8725C61.3365 17.8514 61.6149 17.2286 61.7134 16.4347H58.8409V15.0058H62.9549L62.9725 15.1366C63.0062 15.3878 63.03 15.6303 63.03 15.8632C63.03 17.1965 62.6823 18.2848 62.0001 19.0855C61.23 20.0398 60.2172 20.5132 58.9735 20.5132L58.9735 20.5132ZM94.6963 20.5132C93.5058 20.5132 92.4952 20.024 91.6814 19.0607C91.6813 19.0606 91.6813 19.0605 91.6811 19.0603C91.681 19.0602 91.681 19.0602 91.6809 19.06C90.866 18.1071 90.4616 16.8995 90.4616 15.4853C90.4616 14.0711 90.866 12.8636 91.6809 11.9107C91.6809 11.9106 91.681 11.9105 91.6811 11.9104L91.6814 11.91C92.4952 10.9466 93.5058 10.4575 94.6963 10.4575C95.8846 10.4575 96.8954 10.9467 97.7092 11.9246C98.5244 12.8774 98.9289 14.0826 98.9289 15.4853C98.9289 16.8995 98.5246 18.1071 97.7097 19.06L97.7094 19.0603C96.8952 20.0243 95.8749 20.5132 94.6963 20.5132L94.6963 20.5132ZM64.2073 20.3049V10.6658H64.3399H69.1318V12.1238H65.498V14.7709H68.7755V16.1998H65.498V18.8493H69.1318V20.3049H64.2073ZM72.1457 20.3049V12.1238H69.9165V10.6658H75.6657V12.1238H75.5331H73.4364V20.3049H72.1457ZM79.3399 20.3049V10.6658H80.6306V10.8208V20.3049H79.3399ZM83.8797 20.3049V12.1238H81.6505V10.6658H87.3996V12.1238H87.267H85.1704V20.3049H83.8797ZM100.075 20.3049V10.6658H101.53L105.234 17.5978L105.202 16.2819V10.6658H106.493V20.3049H105.216L101.333 13.0226L101.365 14.3377V14.3398V20.3049H100.075ZM94.6963 19.0576C95.5336 19.0576 96.2171 18.7238 96.7743 18.0492L96.7751 18.048L96.7759 18.047C97.341 17.3863 97.6175 16.5356 97.6175 15.4853C97.6175 14.4375 97.3409 13.5841 96.7759 12.9236L96.7751 12.9226L96.7743 12.9217C96.2172 12.2473 95.5338 11.9154 94.6963 11.9154C93.8574 11.9154 93.1741 12.2467 92.6064 12.9211L92.6059 12.9217C92.0513 13.5982 91.7751 14.4378 91.7751 15.4853C91.7751 16.5353 92.0512 17.3722 92.6059 18.0488L92.6064 18.0495C93.1742 18.724 93.8576 19.0576 94.6963 19.0576V19.0576Z" fill="white"/>
<path d="M27.4656 30.106L13.3491 47.6211C13.3497 47.6247 13.3507 47.6277 13.3512 47.6314C13.7842 49.5331 15.2701 50.9336 17.0337 50.9336C17.7387 50.9336 18.4006 50.7108 18.9683 50.3196L19.0133 50.2888L34.9032 39.5702L27.4656 30.106Z" fill="#EC594C"/>
<path d="M41.7473 27.1236L41.7338 27.1127L34.8737 22.4638L27.145 30.5033L34.9006 39.5684L41.7245 34.9656C42.9209 34.2106 43.733 32.7363 43.733 31.0361C43.733 29.3481 42.9318 27.881 41.7473 27.1236Z" fill="#FBC41D"/>
<path d="M13.3487 14.3784C13.2638 14.7442 13.2192 15.1273 13.2192 15.5252V46.475C13.2192 46.8721 13.2633 47.2566 13.3492 47.6211L27.9515 30.5542L13.3487 14.3784Z" fill="#5A96F5"/>
<path d="M27.5697 30.9998L34.8764 22.4608L19.0045 11.7035C18.4276 11.2996 17.7543 11.0664 17.0338 11.0664C15.2702 11.0664 13.7822 12.4694 13.3492 14.3735C13.3486 14.3754 13.3486 14.3766 13.3486 14.3783L27.5697 30.9998Z" fill="#3ABB5D"/>
</svg>
