<svg width="52" height="9" viewBox="0 0 52 9" fill="none" xmlns="http://www.w3.org/2000/svg">
<g id="Group 62">
<g id="&#240;&#159;&#166;&#134; icon &#34;star&#34;">
<path id="Vector" d="M9.10016 3.26256C9.06067 3.14004 8.98805 3.03083 8.89033 2.94703C8.79262 2.86323 8.67362 2.80811 8.54651 2.78776L6.55195 2.46361L5.62733 0.666862C5.56844 0.552478 5.47917 0.456527 5.36933 0.389538C5.25949 0.322548 5.13332 0.287109 5.00466 0.287109C4.87601 0.287109 4.74984 0.322548 4.64 0.389538C4.53016 0.456527 4.44089 0.552478 4.38199 0.666862L3.45738 2.46361L1.46285 2.78776C1.33587 2.80843 1.21703 2.86367 1.11938 2.94744C1.02173 3.0312 0.949038 3.14024 0.90928 3.2626C0.869523 3.38495 0.864237 3.5159 0.894002 3.64106C0.923766 3.76622 0.987432 3.88077 1.07801 3.97213L2.50111 5.40673L2.19309 7.4038C2.17332 7.53099 2.18902 7.66118 2.23846 7.78004C2.28789 7.89889 2.36915 8.00181 2.47329 8.07747C2.57743 8.15314 2.70042 8.19861 2.82874 8.2089C2.95705 8.21919 3.08571 8.19389 3.20058 8.13579L5.00466 7.22566L6.8088 8.13579C6.92367 8.19377 7.05231 8.21898 7.18057 8.20864C7.30884 8.1983 7.43177 8.15281 7.53587 8.07718C7.63998 8.00154 7.72123 7.89868 7.77069 7.77988C7.82016 7.66109 7.83594 7.53097 7.81629 7.4038L7.50827 5.40673L8.93137 3.97213C9.02223 3.88095 9.0861 3.7664 9.11589 3.64117C9.14568 3.51593 9.14023 3.38489 9.10016 3.26256Z" fill="#FFCD1A"/>
</g>
<g id="&#240;&#159;&#166;&#134; icon &#34;star&#34;_2">
<path id="Vector_2" d="M19.7193 3.26256C19.6798 3.14004 19.6072 3.03083 19.5095 2.94703C19.4118 2.86323 19.2928 2.80811 19.1656 2.78776L17.1711 2.46361L16.2465 0.666862C16.1876 0.552478 16.0983 0.456527 15.9885 0.389538C15.8786 0.322548 15.7525 0.287109 15.6238 0.287109C15.4951 0.287109 15.369 0.322548 15.2591 0.389538C15.1493 0.456527 15.06 0.552478 15.0011 0.666862L14.0765 2.46361L12.082 2.78776C11.955 2.80843 11.8362 2.86367 11.7385 2.94744C11.6409 3.0312 11.5682 3.14024 11.5284 3.2626C11.4887 3.38495 11.4834 3.5159 11.5131 3.64106C11.5429 3.76622 11.6066 3.88077 11.6972 3.97213L13.1203 5.40673L12.8122 7.4038C12.7925 7.53099 12.8082 7.66118 12.8576 7.78004C12.907 7.89889 12.9883 8.00181 13.0924 8.07747C13.1966 8.15314 13.3196 8.19861 13.4479 8.2089C13.5762 8.21919 13.7049 8.19389 13.8197 8.13579L15.6238 7.22566L17.4279 8.13579C17.5428 8.19377 17.6714 8.21898 17.7997 8.20864C17.928 8.1983 18.0509 8.15281 18.155 8.07718C18.2591 8.00154 18.3404 7.89868 18.3898 7.77988C18.4393 7.66109 18.4551 7.53097 18.4354 7.4038L18.1274 5.40673L19.5505 3.97213C19.6414 3.88095 19.7052 3.7664 19.735 3.64117C19.7648 3.51593 19.7594 3.38489 19.7193 3.26256Z" fill="#FFCD1A"/>
</g>
<g id="&#240;&#159;&#166;&#134; icon &#34;star&#34;_3">
<path id="Vector_3" d="M30.3409 3.26256C30.3014 3.14004 30.2288 3.03083 30.1311 2.94703C30.0333 2.86323 29.9143 2.80811 29.7872 2.78776L27.7927 2.46361L26.8681 0.666862C26.8092 0.552478 26.7199 0.456527 26.6101 0.389538C26.5002 0.322548 26.374 0.287109 26.2454 0.287109C26.1167 0.287109 25.9906 0.322548 25.8807 0.389538C25.7709 0.456527 25.6816 0.552478 25.6227 0.666862L24.6981 2.46361L22.7036 2.78776C22.5766 2.80843 22.4578 2.86367 22.3601 2.94744C22.2625 3.0312 22.1898 3.14024 22.15 3.2626C22.1102 3.38495 22.105 3.5159 22.1347 3.64106C22.1645 3.76622 22.2282 3.88077 22.3187 3.97213L23.7418 5.40673L23.4338 7.4038C23.414 7.53099 23.4297 7.66118 23.4792 7.78004C23.5286 7.89889 23.6099 8.00181 23.714 8.07747C23.8182 8.15314 23.9411 8.19861 24.0695 8.2089C24.1978 8.21919 24.3264 8.19389 24.4413 8.13579L26.2454 7.22566L28.0495 8.13579C28.1644 8.19377 28.293 8.21898 28.4213 8.20864C28.5496 8.1983 28.6725 8.15281 28.7766 8.07718C28.8807 8.00154 28.9619 7.89868 29.0114 7.77988C29.0609 7.66109 29.0767 7.53097 29.057 7.4038L28.749 5.40673L30.1721 3.97213C30.263 3.88095 30.3268 3.7664 30.3566 3.64117C30.3864 3.51593 30.381 3.38489 30.3409 3.26256Z" fill="#FFCD1A"/>
</g>
<g id="&#240;&#159;&#166;&#134; icon &#34;star&#34;_4">
<path id="Vector_4" d="M40.9581 3.26256C40.9186 3.14004 40.846 3.03083 40.7482 2.94703C40.6505 2.86323 40.5315 2.80811 40.4044 2.78776L38.4099 2.46361L37.4852 0.666862C37.4263 0.552478 37.3371 0.456527 37.2272 0.389538C37.1174 0.322548 36.9912 0.287109 36.8626 0.287109C36.7339 0.287109 36.6077 0.322548 36.4979 0.389538C36.3881 0.456527 36.2988 0.552478 36.2399 0.666862L35.3153 2.46361L33.3208 2.78776C33.1938 2.80843 33.0749 2.86367 32.9773 2.94744C32.8796 3.0312 32.8069 3.14024 32.7672 3.2626C32.7274 3.38495 32.7221 3.5159 32.7519 3.64106C32.7817 3.76622 32.8453 3.88077 32.9359 3.97213L34.359 5.40673L34.051 7.4038C34.0312 7.53099 34.0469 7.66118 34.0964 7.78004C34.1458 7.89889 34.2271 8.00181 34.3312 8.07747C34.4353 8.15314 34.5583 8.19861 34.6866 8.2089C34.815 8.21919 34.9436 8.19389 35.0585 8.13579L36.8626 7.22566L38.6667 8.13579C38.7816 8.19377 38.9102 8.21898 39.0385 8.20864C39.1667 8.1983 39.2897 8.15281 39.3938 8.07718C39.4979 8.00154 39.5791 7.89868 39.6286 7.77988C39.6781 7.66109 39.6938 7.53097 39.6742 7.4038L39.3662 5.40673L40.7893 3.97213C40.8801 3.88095 40.944 3.7664 40.9738 3.64117C41.0036 3.51593 40.9981 3.38489 40.9581 3.26256Z" fill="#FFCD1A"/>
</g>
<g id="&#240;&#159;&#166;&#134; icon &#34;star&#34;_5">
<path id="Vector_5" d="M51.5777 3.26256C51.5382 3.14004 51.4656 3.03083 51.3679 2.94703C51.2702 2.86323 51.1512 2.80811 51.024 2.78776L49.0295 2.46361L48.1049 0.666862C48.046 0.552478 47.9567 0.456527 47.8469 0.389538C47.737 0.322548 47.6109 0.287109 47.4822 0.287109C47.3535 0.287109 47.2274 0.322548 47.1175 0.389538C47.0077 0.456527 46.9184 0.552478 46.8595 0.666862L45.9349 2.46361L43.9404 2.78776C43.8134 2.80843 43.6946 2.86367 43.5969 2.94744C43.4993 3.0312 43.4266 3.14024 43.3868 3.2626C43.3471 3.38495 43.3418 3.5159 43.3715 3.64106C43.4013 3.76622 43.465 3.88077 43.5556 3.97213L44.9787 5.40673L44.6706 7.4038C44.6509 7.53099 44.6666 7.66118 44.716 7.78004C44.7654 7.89889 44.8467 8.00181 44.9508 8.07747C45.055 8.15314 45.178 8.19861 45.3063 8.2089C45.4346 8.21919 45.5633 8.19389 45.6781 8.13579L47.4822 7.22566L49.2863 8.13579C49.4012 8.19377 49.5298 8.21898 49.6581 8.20864C49.7864 8.1983 49.9093 8.15281 50.0134 8.07718C50.1175 8.00154 50.1988 7.89868 50.2482 7.77988C50.2977 7.66109 50.3135 7.53097 50.2938 7.4038L49.9858 5.40673L51.4089 3.97213C51.4998 3.88095 51.5636 3.7664 51.5934 3.64117C51.6232 3.51593 51.6178 3.38489 51.5777 3.26256Z" fill="#383838"/>
</g>
</g>
</svg>
