<svg width="55" height="55" viewBox="0 0 55 55" fill="none" xmlns="http://www.w3.org/2000/svg">
<g id="india-gate-svgrepo-com 3" clip-path="url(#clip0_183_1703)">
<g id="Group">
<path id="Vector" d="M46.4704 18.342H44.6865V15.1592C44.6865 14.7352 44.3428 14.3915 43.9189 14.3915H42.7775V11.2087C42.7775 10.7847 42.4338 10.4411 42.0099 10.4411H38.6372V4.54663C38.6372 4.12267 38.2936 3.77901 37.8696 3.77901H33.5381V3.23224C33.5381 2.96074 33.3947 2.70943 33.161 2.57138L28.9887 0.106757C28.8705 0.0368454 28.7356 0 28.5983 0H26.4017C26.2644 0 26.1295 0.0368454 26.0113 0.106757L21.839 2.57138C21.6053 2.70943 21.4618 2.96074 21.4618 3.23224V3.77901H17.1303C16.7063 3.77901 16.3626 4.12267 16.3626 4.54663V10.4411H12.9901C12.5662 10.4411 12.2225 10.7847 12.2225 11.2087V14.3915H11.081C10.657 14.3915 10.3134 14.7352 10.3134 15.1592V18.342H8.52958C8.10562 18.342 7.76196 18.6857 7.76196 19.1096C7.76196 19.5336 8.10562 19.8773 8.52958 19.8773H10.0137V54.2324C10.0137 54.6564 10.3573 55 10.7813 55H20.476C20.8999 55 21.2436 54.6564 21.2436 54.2324V33.4207H21.5172C21.9412 33.4207 22.2848 33.077 22.2848 32.653C22.2848 32.2291 21.9412 31.8854 21.5172 31.8854H21.2436V30.7275C21.2436 27.2779 24.0502 24.4712 27.5 24.4712C29.1718 24.4712 30.7432 25.1218 31.9245 26.303C33.1057 27.4842 33.7563 29.0555 33.7563 30.7275V31.8854H33.4828C33.0588 31.8854 32.7151 32.2291 32.7151 32.653C32.7151 33.077 33.0588 33.4207 33.4828 33.4207H33.7563V54.2324C33.7563 54.6564 34.0999 55 34.5239 55H44.2186C44.6425 55 44.9862 54.6564 44.9862 54.2324V19.8773H46.4704C46.8944 19.8773 47.238 19.5336 47.238 19.1096C47.238 18.6857 46.8944 18.342 46.4704 18.342ZM22.9971 3.67025L26.6116 1.53522H28.3885L32.0029 3.67025V3.77901H22.9971V3.67025ZM17.898 5.31424H37.102V10.4411H17.898V5.31424ZM13.7578 11.9763H41.2421V14.3915H13.7578V11.9763ZM11.8487 15.9268H43.1511V18.342H11.8487V15.9268ZM11.549 53.4648V40.0339H19.7085V53.4648H11.549ZM19.7085 38.4987H11.549V33.4207H19.7085V38.4987ZM33.01 25.2174C31.5388 23.7461 29.582 22.936 27.5 22.936C23.2037 22.936 19.7084 26.4312 19.7084 30.7275V31.8854H11.549V19.8776H43.451V31.8854H35.2915V30.7275C35.2915 28.6454 34.4812 26.6886 33.01 25.2174ZM43.4509 33.4207V38.4987H35.2914V33.4207H43.4509ZM35.2915 53.4648V40.0339H43.451V53.4648H35.2915Z" fill="#0D0D0D"/>
<path id="Vector_2" d="M15.6291 23.3826C14.2291 23.3826 13.0901 24.5216 13.0901 25.9217C13.0901 27.3217 14.2291 28.4607 15.6291 28.4607C17.0291 28.4607 18.1681 27.3217 18.1681 25.9217C18.1681 24.5216 17.0291 23.3826 15.6291 23.3826ZM15.6291 26.9255C15.0756 26.9255 14.6253 26.4752 14.6253 25.9217C14.6253 25.3681 15.0756 24.9179 15.6291 24.9179C16.1826 24.9179 16.6329 25.3681 16.6329 25.9217C16.6329 26.4752 16.1825 26.9255 15.6291 26.9255Z" fill="#0D0D0D"/>
<path id="Vector_3" d="M20.0771 5.98822C19.0353 5.98822 18.1877 6.83578 18.1877 7.87761C18.1877 8.91944 19.0353 9.767 20.0771 9.767C21.119 9.767 21.9665 8.91944 21.9665 7.87761C21.9665 6.83578 21.119 5.98822 20.0771 5.98822ZM20.0771 8.23177C19.8819 8.23177 19.723 8.07294 19.723 7.87761C19.723 7.68228 19.8819 7.52344 20.0771 7.52344C20.2723 7.52344 20.4313 7.68228 20.4313 7.87761C20.4313 8.07294 20.2723 8.23177 20.0771 8.23177Z" fill="#0D0D0D"/>
<path id="Vector_4" d="M34.9228 5.98822C33.881 5.98822 33.0334 6.83578 33.0334 7.87761C33.0334 8.91944 33.881 9.767 34.9228 9.767C35.9647 9.767 36.8122 8.91944 36.8122 7.87761C36.8122 6.83578 35.9647 5.98822 34.9228 5.98822ZM34.9228 8.23177C34.7276 8.23177 34.5687 8.07294 34.5687 7.87761C34.5687 7.68228 34.7276 7.52344 34.9228 7.52344C35.118 7.52344 35.277 7.68228 35.277 7.87761C35.277 8.07294 35.118 8.23177 34.9228 8.23177Z" fill="#0D0D0D"/>
<path id="Vector_5" d="M39.3708 28.4607C40.7708 28.4607 41.9098 27.3217 41.9098 25.9217C41.9098 24.5216 40.7708 23.3826 39.3708 23.3826C37.9708 23.3826 36.8318 24.5216 36.8318 25.9217C36.8318 27.3217 37.9707 28.4607 39.3708 28.4607ZM39.3708 24.9179C39.9243 24.9179 40.3746 25.3681 40.3746 25.9217C40.3746 26.4752 39.9243 26.9255 39.3708 26.9255C38.8173 26.9255 38.367 26.4752 38.367 25.9217C38.367 25.3681 38.8173 24.9179 39.3708 24.9179Z" fill="#0D0D0D"/>
</g>
</g>
<defs>
<clipPath id="clip0_183_1703">
<rect width="55" height="55" fill="white"/>
</clipPath>
</defs>
</svg>
