<svg width="20" height="20" viewBox="0 0 20 20" fill="none" xmlns="http://www.w3.org/2000/svg">
<g id="location-svgrepo-com 2">
<path id="Vector" fill-rule="evenodd" clip-rule="evenodd" d="M10.8334 2.50002C10.8334 2.03979 10.4603 1.66669 10.0001 1.66669C9.53983 1.66669 9.16675 2.03979 9.16675 2.50002V3.38493C6.15115 3.76097 3.76103 6.15109 3.38499 9.16669H2.50008C2.03985 9.16669 1.66675 9.53977 1.66675 10C1.66675 10.4603 2.03985 10.8334 2.50008 10.8334H3.38499C3.76103 13.8489 6.15115 16.2391 9.16675 16.6151V17.5C9.16675 17.9603 9.53983 18.3334 10.0001 18.3334C10.4603 18.3334 10.8334 17.9603 10.8334 17.5V16.6151C13.849 16.2391 16.2392 13.8489 16.6152 10.8334H17.5001C17.9603 10.8334 18.3334 10.4603 18.3334 10C18.3334 9.53977 17.9603 9.16669 17.5001 9.16669H16.6152C16.2392 6.15109 13.849 3.76097 10.8334 3.38493V2.50002ZM8.33341 10C8.33341 9.07952 9.07958 8.33335 10.0001 8.33335C10.9206 8.33335 11.6667 9.07952 11.6667 10C11.6667 10.9205 10.9206 11.6667 10.0001 11.6667C9.07958 11.6667 8.33341 10.9205 8.33341 10ZM10.0001 6.66669C8.15913 6.66669 6.66675 8.15907 6.66675 10C6.66675 11.8409 8.15913 13.3334 10.0001 13.3334C11.841 13.3334 13.3334 11.8409 13.3334 10C13.3334 8.15907 11.841 6.66669 10.0001 6.66669Z" fill="#323232"/>
</g>
</svg>
