<svg width="65" height="65" viewBox="0 0 65 65" fill="none" xmlns="http://www.w3.org/2000/svg">
<g id="marketing-mail-svgrepo-com 4" clip-path="url(#clip0_183_2019)">
<g id="Group">
<g id="Group_2">
<path id="Vector" d="M1.76343 0L17.6043 12.0294L33.4482 0H1.76343Z" fill="#0D0D0D"/>
</g>
</g>
<g id="Group_3">
<g id="Group_4">
<path id="Vector_2" d="M0 2.06274V22.4734L11.295 10.6407L0 2.06274Z" fill="#0D0D0D"/>
</g>
</g>
<g id="Group_5">
<g id="Group_6">
<path id="Vector_3" d="M23.9133 10.6407L35.2083 22.4737V2.06494L23.9133 10.6407Z" fill="#0D0D0D"/>
</g>
</g>
<g id="Group_7">
<g id="Group_8">
<path id="Vector_4" d="M21.743 12.2883L17.6042 15.4307L13.4654 12.2883L1.92822 24.375H33.2798L21.743 12.2883Z" fill="#0D0D0D"/>
</g>
</g>
<g id="Group_9">
<g id="Group_10">
<path id="Vector_5" d="M47.3958 29.6429V18.1189H44.6875V20.4887C36.7443 28.23 28.9044 29.5908 24.375 29.5934V46.7661C28.8865 46.6498 36.7388 47.8317 44.6875 55.5888V57.9587H47.3958V46.4345C51.4583 45.7982 54.5593 42.2775 54.5593 38.0389C54.5594 33.8001 51.4583 30.2794 47.3958 29.6429ZM47.3958 43.6855V32.3786C49.9551 33.0013 51.851 35.3035 51.851 38.0389C51.851 40.7742 49.9552 43.0763 47.3958 43.6855Z" fill="#0D0D0D"/>
</g>
</g>
<g id="Group_11">
<g id="Group_12">
<path id="Vector_6" d="M21.6397 56.6043C19.0532 52.366 18.6335 49.5492 18.7824 47.3958H21.6668V28.4375H9.47916C4.2521 28.4375 0 32.6897 0 37.9167C0 42.6563 3.49374 46.5834 8.04374 47.2742L12.2282 61.2219C12.6344 62.5899 13.5552 63.6999 14.8146 64.3635C15.5864 64.7834 16.4396 65 17.3063 65C17.8209 65 18.3491 64.9186 18.8636 64.7699C20.4209 64.2825 21.599 63.1992 22.1813 61.6959C22.7907 60.071 22.601 58.1617 21.6397 56.6043Z" fill="#0D0D0D"/>
</g>
</g>
<g id="Group_13">
<g id="Group_14">
<path id="Vector_7" d="M65.0001 36.5586H58.2292V39.2669H65.0001V36.5586Z" fill="#0D0D0D"/>
</g>
</g>
<g id="Group_15">
<g id="Group_16">
<path id="Vector_8" d="M59.2855 25.4611L54.4978 30.2488L56.4128 32.1638L61.2005 27.3761L59.2855 25.4611Z" fill="#0D0D0D"/>
</g>
</g>
<g id="Group_17">
<g id="Group_18">
<path id="Vector_9" d="M56.407 43.6619L54.4919 45.5769L59.2796 50.3646L61.1947 48.4495L56.407 43.6619Z" fill="#0D0D0D"/>
</g>
</g>
</g>
<defs>
<clipPath id="clip0_183_2019">
<rect width="65" height="65" fill="white"/>
</clipPath>
</defs>
</svg>
