<svg width="42" height="42" viewBox="0 0 42 42" fill="none" xmlns="http://www.w3.org/2000/svg">
<g id="Group 1170">
<path id="Ellipse 1801" d="M39.9992 21.1111C39.9992 31.6659 31.4428 40.2223 20.888 40.2223C10.3332 40.2223 1.77686 31.6659 1.77686 21.1111C1.77686 10.5564 10.3332 2 20.888 2C31.4428 2 39.9992 10.5564 39.9992 21.1111Z" fill="#FFC227"/>
<path id="Ellipse 1801 (Stroke)" fill-rule="evenodd" clip-rule="evenodd" d="M41.4149 21.1113C41.4149 32.4479 32.2248 41.6381 20.8881 41.6381C9.55149 41.6381 0.361328 32.4479 0.361328 21.1113C0.361328 9.77463 9.55149 0.584473 20.8881 0.584473C32.2248 0.584473 41.4149 9.77463 41.4149 21.1113ZM20.8881 40.2224C31.4429 40.2224 39.9993 31.6661 39.9993 21.1113C39.9993 10.5565 31.4429 2.00011 20.8881 2.00011C10.3333 2.00011 1.77697 10.5565 1.77697 21.1113C1.77697 31.6661 10.3333 40.2224 20.8881 40.2224Z" fill="#FAAB0D"/>
<path id="Ellipse 1805 (Stroke)" fill-rule="evenodd" clip-rule="evenodd" d="M3.19237 21.8191C2.80146 21.8191 2.48455 21.5022 2.48455 21.1113C2.48456 10.9474 10.724 2.70794 20.8879 2.70794C21.2788 2.70794 21.5957 3.02485 21.5957 3.41576C21.5957 3.80668 21.2788 4.12358 20.8879 4.12358C11.5058 4.12358 3.9002 11.7292 3.90019 21.1113C3.90019 21.5022 3.58329 21.8191 3.19237 21.8191Z" fill="#F5B616"/>
<path id="Ellipse 1804 (Stroke)" fill-rule="evenodd" clip-rule="evenodd" d="M38.5835 20.4033C38.9744 20.4033 39.2913 20.7202 39.2913 21.1111C39.2913 31.275 31.0519 39.5145 20.888 39.5145C20.4971 39.5145 20.1802 39.1976 20.1802 38.8067C20.1802 38.4157 20.4971 38.0988 20.888 38.0988C30.27 38.0988 37.8757 30.4932 37.8757 21.1111C37.8757 20.7202 38.1926 20.4033 38.5835 20.4033Z" fill="#F5B616"/>
<path id="Ellipse 1802" d="M35.0447 21.1112C35.0447 28.9296 28.7067 35.2676 20.8883 35.2676C13.07 35.2676 6.73193 28.9296 6.73193 21.1112C6.73193 13.2929 13.07 6.95483 20.8883 6.95483C28.7067 6.95483 35.0447 13.2929 35.0447 21.1112Z" fill="#FFE342"/>
<path id="Ellipse 1802 (Stroke)" fill-rule="evenodd" clip-rule="evenodd" d="M36.46 21.1114C36.46 29.7116 29.4882 36.6834 20.888 36.6834C12.2878 36.6834 5.31592 29.7116 5.31592 21.1114C5.31592 12.5111 12.2878 5.53931 20.888 5.53931C29.4882 5.53931 36.46 12.5111 36.46 21.1114ZM20.888 35.2678C28.7063 35.2678 35.0444 28.9297 35.0444 21.1114C35.0444 13.293 28.7063 6.95495 20.888 6.95495C13.0696 6.95495 6.73156 13.293 6.73156 21.1114C6.73156 28.9297 13.0696 35.2678 20.888 35.2678Z" fill="#FAAB0D"/>
<path id="Ellipse 1803 (Stroke)" fill-rule="evenodd" clip-rule="evenodd" d="M20.8883 33.1442C27.5339 33.1442 32.9213 27.7568 32.9213 21.1112C32.9213 20.7203 33.2382 20.4034 33.6291 20.4034C34.02 20.4034 34.3369 20.7203 34.3369 21.1112C34.3369 28.5387 28.3158 34.5598 20.8883 34.5598C20.4974 34.5598 20.1805 34.2429 20.1805 33.852C20.1805 33.4611 20.4974 33.1442 20.8883 33.1442Z" fill="#FBD70F"/>
<path id="Ellipse 1800 (Stroke)" fill-rule="evenodd" clip-rule="evenodd" d="M20.888 9.07824C14.2424 9.07824 8.85509 14.4656 8.85509 21.1112C8.85509 21.5021 8.53819 21.819 8.14727 21.819C7.75636 21.819 7.43945 21.5021 7.43945 21.1112C7.43945 13.6837 13.4606 7.6626 20.888 7.6626C21.279 7.6626 21.5959 7.9795 21.5959 8.37042C21.5959 8.76134 21.279 9.07824 20.888 9.07824Z" fill="#7D6A00"/>
</g>
</svg>
