<svg width="50" height="47" viewBox="0 0 50 47" fill="none" xmlns="http://www.w3.org/2000/svg">
<path d="M43.9992 21.1111C43.9992 31.6659 35.4428 40.2223 24.888 40.2223C14.3332 40.2223 5.77686 31.6659 5.77686 21.1111C5.77686 10.5564 14.3332 2 24.888 2C35.4428 2 43.9992 10.5564 43.9992 21.1111Z" fill="#FFC227"/>
<path fill-rule="evenodd" clip-rule="evenodd" d="M45.4149 21.1113C45.4149 32.4479 36.2248 41.6381 24.8881 41.6381C13.5515 41.6381 4.36133 32.4479 4.36133 21.1113C4.36133 9.77463 13.5515 0.584473 24.8881 0.584473C36.2248 0.584473 45.4149 9.77463 45.4149 21.1113ZM24.8881 40.2224C35.4429 40.2224 43.9993 31.6661 43.9993 21.1113C43.9993 10.5565 35.4429 2.00011 24.8881 2.00011C14.3333 2.00011 5.77697 10.5565 5.77697 21.1113C5.77697 31.6661 14.3333 40.2224 24.8881 40.2224Z" fill="#FAAB0D"/>
<path fill-rule="evenodd" clip-rule="evenodd" d="M7.19237 21.8191C6.80146 21.8191 6.48455 21.5022 6.48455 21.1113C6.48456 10.9474 14.724 2.70794 24.8879 2.70794C25.2788 2.70794 25.5957 3.02485 25.5957 3.41576C25.5957 3.80668 25.2788 4.12358 24.8879 4.12358C15.5058 4.12358 7.9002 11.7292 7.90019 21.1113C7.90019 21.5022 7.58329 21.8191 7.19237 21.8191Z" fill="#F5B616"/>
<path fill-rule="evenodd" clip-rule="evenodd" d="M42.5835 20.4033C42.9744 20.4033 43.2913 20.7202 43.2913 21.1111C43.2913 31.275 35.0519 39.5145 24.888 39.5145C24.4971 39.5145 24.1802 39.1976 24.1802 38.8067C24.1802 38.4157 24.4971 38.0988 24.888 38.0988C34.27 38.0988 41.8757 30.4932 41.8757 21.1111C41.8757 20.7202 42.1926 20.4033 42.5835 20.4033Z" fill="#F5B616"/>
<path d="M39.0447 21.1112C39.0447 28.9296 32.7067 35.2676 24.8883 35.2676C17.07 35.2676 10.7319 28.9296 10.7319 21.1112C10.7319 13.2929 17.07 6.95483 24.8883 6.95483C32.7067 6.95483 39.0447 13.2929 39.0447 21.1112Z" fill="#FFE342"/>
<path fill-rule="evenodd" clip-rule="evenodd" d="M40.46 21.1114C40.46 29.7116 33.4882 36.6834 24.888 36.6834C16.2878 36.6834 9.31592 29.7116 9.31592 21.1114C9.31592 12.5111 16.2878 5.53931 24.888 5.53931C33.4882 5.53931 40.46 12.5111 40.46 21.1114ZM24.888 35.2678C32.7063 35.2678 39.0444 28.9297 39.0444 21.1114C39.0444 13.293 32.7063 6.95495 24.888 6.95495C17.0696 6.95495 10.7316 13.293 10.7316 21.1114C10.7316 28.9297 17.0696 35.2678 24.888 35.2678Z" fill="#FAAB0D"/>
<path fill-rule="evenodd" clip-rule="evenodd" d="M24.8883 33.1442C31.5339 33.1442 36.9213 27.7568 36.9213 21.1112C36.9213 20.7203 37.2382 20.4034 37.6291 20.4034C38.02 20.4034 38.3369 20.7203 38.3369 21.1112C38.3369 28.5387 32.3158 34.5598 24.8883 34.5598C24.4974 34.5598 24.1805 34.2429 24.1805 33.852C24.1805 33.4611 24.4974 33.1442 24.8883 33.1442Z" fill="#FBD70F"/>
<path fill-rule="evenodd" clip-rule="evenodd" d="M24.888 9.07824C18.2424 9.07824 12.8551 14.4656 12.8551 21.1112C12.8551 21.5021 12.5382 21.819 12.1473 21.819C11.7564 21.819 11.4395 21.5021 11.4395 21.1112C11.4395 13.6837 17.4606 7.6626 24.888 7.6626C25.279 7.6626 25.5959 7.9795 25.5959 8.37042C25.5959 8.76134 25.279 9.07824 24.888 9.07824Z" fill="#7D6A00"/>
<path d="M3.25548 39.955L1.43229 36.3086C1.23374 35.9116 1.52249 35.4443 1.96646 35.4443L9.95848 35.4443C10.2883 35.4443 10.5557 35.7117 10.5557 36.0416L10.5557 44.4027C10.5557 44.7325 10.2883 44.9999 9.95848 44.9999L1.96646 44.9999C1.52249 44.9999 1.23374 44.5327 1.43228 44.1356L3.25548 40.4892C3.33955 40.3211 3.33955 40.1232 3.25548 39.955Z" fill="#DA262F"/>
<path d="M46.5227 39.955L48.3458 36.3086C48.5444 35.9116 48.2556 35.4443 47.8117 35.4443L39.8197 35.4443C39.4898 35.4443 39.2224 35.7117 39.2224 36.0416L39.2224 44.4027C39.2224 44.7325 39.4898 44.9999 39.8197 44.9999L47.8117 44.9999C48.2556 44.9999 48.5444 44.5327 48.3458 44.1356L46.5227 40.4892C46.4386 40.3211 46.4386 40.1232 46.5227 39.955Z" fill="#DA262F"/>
<path fill-rule="evenodd" clip-rule="evenodd" d="M2.05341 40.222L0.363754 36.8427C-0.231884 35.6514 0.634365 34.2498 1.96627 34.2498L9.95829 34.2498C10.9478 34.2498 11.75 35.0519 11.75 36.0414L11.75 44.4026C11.75 45.3921 10.9478 46.1942 9.95829 46.1942L1.96627 46.1942C0.634365 46.1942 -0.231884 44.7926 0.363754 43.6013L2.05341 40.222ZM2.1866 40.4884C2.18672 40.4886 2.18684 40.4889 2.18695 40.4891L2.72113 40.222L2.18695 40.4891L2.1866 40.4884ZM47.7244 40.222L49.414 36.8427C50.0096 35.6514 49.1434 34.2498 47.8115 34.2498L39.8195 34.2498C38.83 34.2498 38.0278 35.0519 38.0278 36.0414L38.0278 44.4026C38.0278 45.3921 38.83 46.1942 39.8195 46.1942L47.8115 46.1942C49.1434 46.1942 50.0096 44.7926 49.414 43.6013L47.7244 40.222ZM48.3457 36.3085L46.5225 39.9549C46.4384 40.123 46.4384 40.3209 46.5225 40.4891L48.3457 44.1355C48.5442 44.5326 48.2555 44.9998 47.8115 44.9998L39.8195 44.9998C39.4896 44.9998 39.2222 44.7324 39.2222 44.4026L39.2222 36.0414C39.2222 35.7116 39.4896 35.4442 39.8195 35.4442L47.8115 35.4442C48.2555 35.4442 48.5442 35.9114 48.3457 36.3085ZM1.4321 36.3085L3.25529 39.9549C3.33936 40.123 3.33936 40.3209 3.25529 40.4891L1.4321 44.1355C1.23355 44.5326 1.5223 44.9998 1.96627 44.9998L9.95829 44.9998C10.2881 44.9998 10.5555 44.7324 10.5555 44.4026L10.5555 36.0414C10.5555 35.7116 10.2881 35.4442 9.95829 35.4442L1.96627 35.4442C1.5223 35.4442 1.23355 35.9114 1.4321 36.3085Z" fill="#B21119"/>
<path fill-rule="evenodd" clip-rule="evenodd" d="M2.28631 35.9844C2.39567 35.8108 2.58644 35.7056 2.79156 35.7056H5.32976C5.6596 35.7056 5.92698 35.973 5.92698 36.3028C5.92698 36.6326 5.6596 36.9 5.32976 36.9H3.7392L4.9727 39.4791C5.11501 39.7767 4.98916 40.1333 4.6916 40.2756C4.39404 40.4179 4.03746 40.2921 3.89515 39.9945L2.25278 36.5605C2.16428 36.3754 2.17694 36.1579 2.28631 35.9844Z" fill="#E34E56"/>
<path d="M41.6113 42.0138L41.6113 33.6526C41.6113 33.3228 41.3439 33.0554 41.0141 33.0554L8.76404 33.0554C8.4342 33.0554 8.16681 33.3228 8.16681 33.6526L8.16681 42.0138C8.16681 42.3436 8.4342 42.611 8.76404 42.611L41.0141 42.611C41.3439 42.611 41.6113 42.3436 41.6113 42.0138Z" fill="#F34B53"/>
<path fill-rule="evenodd" clip-rule="evenodd" d="M42.8057 33.6528L42.8057 42.0139C42.8057 43.0034 42.0035 43.8056 41.014 43.8056L8.76393 43.8056C7.77441 43.8055 6.97226 43.0034 6.97226 42.0139L6.97226 33.6528C6.97226 32.6632 7.77441 31.8611 8.76393 31.8611L41.014 31.8611C42.0035 31.8611 42.8057 32.6632 42.8057 33.6528ZM41.6112 33.6528L41.6112 42.0139C41.6112 42.3437 41.3438 42.6111 41.014 42.6111L8.76393 42.6111C8.43409 42.6111 8.1667 42.3437 8.1667 42.0139L8.1667 33.6528C8.1667 33.3229 8.43409 33.0555 8.76393 33.0555L41.014 33.0555C41.3438 33.0555 41.6112 33.3229 41.6112 33.6528Z" fill="#B21119"/>
<path d="M39.9609 38.06C39.6227 38.06 39.3486 37.7926 39.3486 37.4626C39.3486 37.1327 39.6227 36.8652 39.9609 36.8652C40.2991 36.8652 40.5732 37.1327 40.5732 37.4626C40.5732 37.7926 40.2991 38.06 39.9609 38.06Z" fill="#E52A34"/>
<path d="M37.6314 37.8212C37.2107 37.8212 36.8697 37.4885 36.8697 37.0781C36.8697 36.6677 37.2107 36.335 37.6314 36.335C38.052 36.335 38.3931 36.6677 38.3931 37.0781C38.3931 37.4885 38.052 37.8212 37.6314 37.8212Z" fill="#E52A34"/>
<path d="M38.6694 39.52C38.4591 39.52 38.2886 39.3536 38.2886 39.1484C38.2886 38.9432 38.4591 38.7769 38.6694 38.7769C38.8798 38.7769 39.0503 38.9432 39.0503 39.1484C39.0503 39.3536 38.8798 39.52 38.6694 39.52Z" fill="#E52A34"/>
<path d="M38.0122 35.5903C37.8019 35.5903 37.6314 35.4239 37.6314 35.2187C37.6314 35.0135 37.8019 34.8472 38.0122 34.8472C38.2226 34.8472 38.3931 35.0135 38.3931 35.2187C38.3931 35.4239 38.2226 35.5903 38.0122 35.5903Z" fill="#E52A34"/>
<path d="M36.0108 39.1484C35.8004 39.1484 35.6299 38.982 35.6299 38.7768C35.6299 38.5716 35.8004 38.4053 36.0108 38.4053C36.2211 38.4053 36.3916 38.5716 36.3916 38.7768C36.3916 38.982 36.2211 39.1484 36.0108 39.1484Z" fill="#E52A34"/>
<path d="M35.6299 37.2368C35.4196 37.2368 35.2491 37.0704 35.2491 36.8652C35.2491 36.66 35.4196 36.4937 35.6299 36.4937C35.8402 36.4937 36.0107 36.66 36.0107 36.8652C36.0107 37.0704 35.8402 37.2368 35.6299 37.2368Z" fill="#E52A34"/>
<path d="M33.0337 41.5468C32.8234 41.5468 32.6529 41.3805 32.6529 41.1753C32.6529 40.9701 32.8234 40.8037 33.0337 40.8037C33.244 40.8037 33.4146 40.9701 33.4146 41.1753C33.4146 41.3805 33.244 41.5468 33.0337 41.5468Z" fill="#E52A34"/>
<path d="M40.6109 40.1284C40.4005 40.1284 40.23 39.962 40.23 39.7568C40.23 39.5516 40.4005 39.3853 40.6109 39.3853C40.8212 39.3853 40.9917 39.5516 40.9917 39.7568C40.9917 39.962 40.8212 40.1284 40.6109 40.1284Z" fill="#E52A34"/>
<path d="M37.0115 40.9423C36.6692 40.9423 36.3917 40.6716 36.3917 40.3376C36.3917 40.0036 36.6692 39.7329 37.0115 39.7329C37.3539 39.7329 37.6313 40.0036 37.6313 40.3376C37.6313 40.6716 37.3539 40.9423 37.0115 40.9423Z" fill="#E52A34"/>
<path d="M39.6697 41.5468C39.3274 41.5468 39.0499 41.2761 39.0499 40.9421C39.0499 40.6081 39.3274 40.3374 39.6697 40.3374C40.0121 40.3374 40.2896 40.6081 40.2896 40.9421C40.2896 41.2761 40.0121 41.5468 39.6697 41.5468Z" fill="#E52A34"/>
<path d="M34.2484 40.3578C33.906 40.3578 33.6286 40.0871 33.6286 39.7531C33.6286 39.4192 33.906 39.1484 34.2484 39.1484C34.5907 39.1484 34.8682 39.4192 34.8682 39.7531C34.8682 40.0871 34.5907 40.3578 34.2484 40.3578Z" fill="#E52A34"/>
<path d="M35.249 41.7304C35.0387 41.7304 34.8682 41.5641 34.8682 41.3589C34.8682 41.1537 35.0387 40.9873 35.249 40.9873C35.4594 40.9873 35.6299 41.1537 35.6299 41.3589C35.6299 41.5641 35.4594 41.7304 35.249 41.7304Z" fill="#E52A34"/>
<path fill-rule="evenodd" clip-rule="evenodd" d="M8.54004 33.9139C8.54004 33.584 8.80743 33.3167 9.13726 33.3167H31.5331C31.863 33.3167 32.1304 33.584 32.1304 33.9139C32.1304 34.2437 31.863 34.5111 31.5331 34.5111H9.73449V38.6917C9.73449 39.0215 9.4671 39.2889 9.13726 39.2889C8.80743 39.2889 8.54004 39.0215 8.54004 38.6917V33.9139Z" fill="#FE7F86"/>
<path d="M17.832 19.4432L22.2421 18.5452L23.5651 16.3L24.8881 14.0549L27.5341 18.5452L31.9442 19.4432L28.4162 23.0354L29.2982 27.5256L24.8881 25.2805L20.4781 27.5256L21.3601 23.0354L17.832 19.4432Z" fill="#7C6800"/>
<path fill-rule="evenodd" clip-rule="evenodd" d="M22.2423 18.5451L24.8884 14.0549L27.5344 18.5451L31.9444 19.4432L28.4164 23.0354L29.2984 27.5256L24.8884 25.2805L20.4783 27.5256L21.3603 23.0354L17.8323 19.4432L22.2423 18.5451ZM19.9711 23.4518L16.917 20.3421C16.5875 20.0066 16.4679 19.5177 16.6054 19.068C16.7429 18.6183 17.1155 18.2799 17.5763 18.1861L21.4269 17.4019L23.7831 13.4036C24.0137 13.0122 24.4341 12.772 24.8884 12.772C25.3426 12.772 25.763 13.0122 25.9936 13.4036L28.3498 17.4019L32.2004 18.1861C32.6612 18.2799 33.0338 18.6183 33.1713 19.068C33.3088 19.5177 33.1893 20.0066 32.8597 20.3421L29.8056 23.4518L30.5573 27.2783C30.6519 27.76 30.4634 28.2534 30.0717 28.5493C29.68 28.8452 29.1538 28.8916 28.7164 28.6689L24.8884 26.7201L21.0603 28.6689C20.6229 28.8916 20.0967 28.8452 19.705 28.5493C19.3133 28.2534 19.1248 27.76 19.2194 27.2783L19.9711 23.4518Z" fill="#FAAB0D"/>
</svg>
