<svg width="48" height="48" viewBox="0 0 48 48" fill="none" xmlns="http://www.w3.org/2000/svg">
<g id="news-paper-svgrepo-com 1" clip-path="url(#clip0_289_6331)">
<g id="Group">
<g id="Group_2">
<g id="Group_3">
<path id="Vector" d="M45.5928 25.6H39.9999V2.40722C40 1.08 38.92 0 37.5928 0H2.40722C1.08 0 0 1.08 0 2.40722V45.5928C0 46.92 1.08 48 2.40722 48H43.2C45.8472 48 48 45.8472 48 43.2V28.0072C48 26.68 46.92 25.6 45.5928 25.6ZM30.4 4.8H34.4001C34.8416 4.8 35.2 5.15841 35.2 5.59997C35.2 6.04153 34.8416 6.39994 34.4001 6.39994H30.4C29.9585 6.39994 29.6001 6.04153 29.6001 5.59997C29.6001 5.15841 29.9584 4.8 30.4 4.8ZM33.6 17.6C34.0416 17.6 34.4 17.9584 34.4 18.3999C34.4 18.8415 34.0416 19.1999 33.6 19.1999H28C27.5585 19.1999 27.2001 18.8415 27.2001 18.3999C27.2001 17.9584 27.5585 17.6 28 17.6H33.6ZM28.8 13.6C28.8 13.1585 29.1584 12.8001 29.6 12.8001H32.7999C33.2415 12.8001 33.5999 13.1585 33.5999 13.6C33.5999 14.0416 33.2415 14.4 32.7999 14.4H29.6C29.1584 14.4 28.8 14.0416 28.8 13.6ZM4.00003 4.8C4.00003 4.35844 4.35844 4.00003 4.8 4.00003H24C24.4416 4.00003 24.8 4.35844 24.8 4.8V19.2C24.8 19.6416 24.4416 20 24 20H4.8C4.35844 20 4.00003 19.6416 4.00003 19.2V4.8ZM16.8 43.2H5.59997C5.15841 43.2 4.8 42.8416 4.8 42.4C4.8 41.9585 5.15841 41.6001 5.59997 41.6001H16.8C17.2416 41.6001 17.6 41.9585 17.6 42.4C17.6 42.8416 17.2416 43.2 16.8 43.2ZM16.8 39.2H7.99997C7.55841 39.2 7.2 38.8416 7.2 38.4C7.2 37.9584 7.55841 37.6 7.99997 37.6H16.8C17.2416 37.6 17.6 37.9584 17.6 38.4C17.6 38.8416 17.2416 39.2 16.8 39.2ZM18.4 35.2H7.2C6.75844 35.2 6.40003 34.8416 6.40003 34.4001C6.40003 33.9585 6.75844 33.6 7.2 33.6H18.4C18.8416 33.6 19.2 33.9584 19.2 34.4C19.2 34.8415 18.8416 35.2 18.4 35.2ZM20.8 31.2H4.8C4.35844 31.2 4.00003 30.8416 4.00003 30.4C4.00003 29.9585 4.35844 29.6001 4.8 29.6001H20.8C21.2416 29.6001 21.6 29.9585 21.6 30.4C21.6 30.8416 21.2416 31.2 20.8 31.2ZM35.2 43.2H24C23.5584 43.2 23.2 42.8416 23.2 42.4C23.2 41.9585 23.5584 41.6001 24 41.6001H35.2C35.6416 41.6001 36 41.9585 36 42.4C36 42.8416 35.6416 43.2 35.2 43.2ZM30.4 35.2H24C23.5584 35.2 23.2 34.8416 23.2 34.4001C23.2 33.9585 23.5584 33.6 24 33.6H30.4C30.8416 33.6 31.2 33.9584 31.2 34.4C31.2 34.8415 30.8416 35.2 30.4 35.2ZM34.4 37.6C34.8415 37.6 35.1999 37.9584 35.1999 38.4C35.1999 38.8416 34.8415 39.2 34.4 39.2H25.5999C25.1584 39.2 24.8 38.8416 24.8 38.4C24.8 37.9584 25.1584 37.6 25.5999 37.6H34.4ZM35.2 31.2H25.6C25.1585 31.2 24.8001 30.8416 24.8001 30.4C24.8001 29.9585 25.1585 29.6001 25.6 29.6001H35.2C35.6416 29.6001 36 29.9585 36 30.4C36 30.8416 35.6416 31.2 35.2 31.2ZM36 26.4C36 26.8416 35.6416 27.2 35.2 27.2H4.8C4.35844 27.2 4.00003 26.8416 4.00003 26.4V23.2C4.00003 22.7585 4.35844 22.4001 4.8 22.4001H35.2C35.6416 22.4001 36 22.7585 36 23.2V26.4ZM35.2 10.4H28C27.5585 10.4 27.2001 10.0416 27.2001 9.6C27.2001 9.15844 27.5585 8.80003 28 8.80003H35.2C35.6416 8.80003 36 9.15844 36 9.6C36 10.0416 35.6416 10.4 35.2 10.4ZM46.4 43.2C46.4 44.9648 44.9647 46.4 43.2 46.4C41.4352 46.4 40 44.9647 40 43.2V27.2H45.5929C46.0377 27.2 46.4001 27.5624 46.4001 28.0072L46.4 43.2Z" fill="black"/>
<path id="Vector_2" d="M23.2001 5.59998H5.6001V18.3999H23.2001V5.59998Z" fill="black"/>
<path id="Vector_3" d="M34.4001 24H5.6001V25.6H34.4001V24Z" fill="black"/>
</g>
</g>
</g>
</g>
<defs>
<clipPath id="clip0_289_6331">
<rect width="48" height="48" fill="white"/>
</clipPath>
</defs>
</svg>
