<svg width="54" height="54" viewBox="0 0 54 54" fill="none" xmlns="http://www.w3.org/2000/svg">
<g id="radio-minimalistic-svgrepo-com 1">
<path id="Vector" d="M12.9375 31.5C12.9375 28.7042 15.2041 26.4375 18 26.4375C20.7959 26.4375 23.0625 28.7042 23.0625 31.5C23.0625 34.2958 20.7959 36.5625 18 36.5625C15.2041 36.5625 12.9375 34.2958 12.9375 31.5Z" fill="#0D0D0D"/>
<path id="Vector_2" fill-rule="evenodd" clip-rule="evenodd" d="M34.4689 8.27728C35.3122 7.88045 35.6742 6.87515 35.2773 6.03187C34.8804 5.1886 33.8751 4.82668 33.0318 5.22352L15.2256 13.6029C11.3208 13.8034 8.87773 14.3944 7.13603 16.136C4.5 18.7721 4.5 23.0148 4.5 31.5C4.5 39.9852 4.5 44.228 7.13603 46.8639C9.77209 49.5 14.0147 49.5 22.5 49.5H31.5C39.9852 49.5 44.228 49.5 46.8639 46.8639C49.5 44.228 49.5 39.9852 49.5 31.5C49.5 23.0148 49.5 18.7721 46.8639 16.136C44.228 13.5 39.9852 13.5 31.5 13.5H23.3707L34.4689 8.27728ZM18 23.0625C13.3401 23.0625 9.5625 26.84 9.5625 31.5C9.5625 36.16 13.3401 39.9375 18 39.9375C22.66 39.9375 26.4375 36.16 26.4375 31.5C26.4375 26.84 22.66 23.0625 18 23.0625ZM28.6875 24.75C28.6875 23.8181 29.443 23.0625 30.375 23.0625H42.75C43.6819 23.0625 44.4375 23.8181 44.4375 24.75C44.4375 25.682 43.6819 26.4375 42.75 26.4375H30.375C29.443 26.4375 28.6875 25.682 28.6875 24.75ZM30.375 29.8125C29.443 29.8125 28.6875 30.5681 28.6875 31.5C28.6875 32.432 29.443 33.1875 30.375 33.1875H42.75C43.6819 33.1875 44.4375 32.432 44.4375 31.5C44.4375 30.5681 43.6819 29.8125 42.75 29.8125H30.375ZM28.6875 38.25C28.6875 37.3181 29.443 36.5625 30.375 36.5625H42.75C43.6819 36.5625 44.4375 37.3181 44.4375 38.25C44.4375 39.182 43.6819 39.9375 42.75 39.9375H30.375C29.443 39.9375 28.6875 39.182 28.6875 38.25Z" fill="#0D0D0D"/>
</g>
</svg>
