<svg width="18" height="18" viewBox="0 0 18 18" fill="none" xmlns="http://www.w3.org/2000/svg">
<g id="search-svgrepo-com 3">
<path id="Vector" fill-rule="evenodd" clip-rule="evenodd" d="M7.5 3.75C5.42894 3.75 3.75 5.42894 3.75 7.5C3.75 9.57105 5.42894 11.25 7.5 11.25C8.53575 11.25 9.4722 10.8311 10.1516 10.1516C10.8311 9.4722 11.25 8.53575 11.25 7.5C11.25 5.42894 9.57105 3.75 7.5 3.75ZM2.25 7.5C2.25 4.60051 4.60051 2.25 7.5 2.25C10.3995 2.25 12.75 4.60051 12.75 7.5C12.75 8.67893 12.3608 9.76792 11.7047 10.6441L15.5303 14.4697C15.8232 14.7626 15.8232 15.2374 15.5303 15.5303C15.2374 15.8232 14.7626 15.8232 14.4697 15.5303L10.6441 11.7047C9.76792 12.3608 8.67893 12.75 7.5 12.75C4.60051 12.75 2.25 10.3995 2.25 7.5Z" fill="#8C898D"/>
</g>
</svg>
