<svg width="65" height="65" viewBox="0 0 65 65" fill="none" xmlns="http://www.w3.org/2000/svg">
<g id="team-3-svgrepo-com 4" clip-path="url(#clip0_183_1995)">
<g id="Group">
<path id="Vector" d="M55.3454 36.5023C59.4726 36.5023 62.8191 33.158 62.8191 29.0307C62.8191 24.9035 59.4725 21.5569 55.3454 21.5569C51.2192 21.5569 47.8726 24.9035 47.8726 29.0307C47.8727 33.158 51.2192 36.5023 55.3454 36.5023Z" fill="#0D0D0D"/>
<path id="Vector_2" d="M64.9149 43.7039C64.5819 41.7029 62.9278 38.9023 61.6758 37.6512C61.5109 37.4854 60.7738 37.447 60.5748 37.5704C59.0526 38.5066 57.2646 39.0576 55.3456 39.0576C53.4287 39.0576 51.6406 38.5066 50.1183 37.5704C49.9183 37.447 49.1822 37.4854 49.0173 37.6512C48.6673 38.0012 48.2854 38.4671 47.9131 39.0074C48.9205 40.9041 49.7194 42.9189 50.0077 44.6538C50.2959 46.393 50.2023 48.0396 49.7363 49.5407C51.3915 50.1396 53.3764 50.4024 55.3454 50.4024C60.4813 50.4024 65.7372 48.6216 64.9149 43.7039Z" fill="#0D0D0D"/>
<path id="Vector_3" d="M32.3082 33.3496C38.997 33.3496 44.42 27.9266 44.42 21.238C44.42 14.5513 38.997 9.12842 32.3082 9.12842C25.6206 9.12842 20.1997 14.5513 20.1997 21.238C20.1997 27.9266 25.6205 33.3496 32.3082 33.3496Z" fill="#0D0D0D"/>
<path id="Vector_4" d="M42.5636 35.2047C42.3008 34.943 41.1073 34.8761 40.7828 35.0769C38.3138 36.5961 35.4164 37.4854 32.3081 37.4854C29.202 37.4854 26.3032 36.5961 23.8355 35.0769C23.5111 34.876 22.3176 34.943 22.0548 35.2047C20.0209 37.2364 17.3403 41.7785 16.801 45.0166C15.4713 52.9926 23.9909 55.8721 32.3081 55.8721C40.6276 55.8721 49.147 52.9926 47.8173 45.0166C47.278 41.7785 44.5974 37.2364 42.5636 35.2047Z" fill="#0D0D0D"/>
<path id="Vector_5" d="M9.65452 36.5023C13.7808 36.5023 17.1272 33.158 17.1272 29.0307C17.1272 24.9035 13.7808 21.5569 9.65452 21.5569C5.52715 21.5569 2.18066 24.9035 2.18066 29.0307C2.18066 33.158 5.52715 36.5023 9.65452 36.5023Z" fill="#0D0D0D"/>
<path id="Vector_6" d="M14.6116 44.6538C14.9181 42.8316 15.7827 40.6861 16.8668 38.7022C16.5646 38.2895 16.2626 37.93 15.9838 37.6512C15.8189 37.4854 15.0829 37.447 14.8829 37.5704C13.3606 38.5066 11.5725 39.0576 9.65472 39.0576C7.73671 39.0576 5.94743 38.5066 4.42641 37.5704C4.22735 37.447 3.48924 37.4854 3.32433 37.6512C2.06914 38.9022 0.419387 41.7029 0.085246 43.7039C-0.735887 48.6216 4.51896 50.4022 9.65472 50.4022C11.4875 50.4022 13.3384 50.1766 14.9181 49.6608C14.4203 48.1291 14.3149 46.4441 14.6116 44.6538Z" fill="#0D0D0D"/>
</g>
</g>
<defs>
<clipPath id="clip0_183_1995">
<rect width="65" height="65" fill="white"/>
</clipPath>
</defs>
</svg>
