<svg width="65" height="65" viewBox="0 0 65 65" fill="none" xmlns="http://www.w3.org/2000/svg">
<g id="team-member-svgrepo-com 4">
<g id="Group">
<g id="Group_2">
<path id="Vector" d="M37.0501 28.6001H33.1501H29.2501C27.1051 28.6001 25.3501 30.3551 25.3501 32.5001V38.3501C25.3501 39.0651 25.6751 39.7151 26.1301 40.1701C26.5851 40.6251 27.2351 40.9501 27.9501 40.9501V46.8001C27.9501 48.9451 29.7051 50.7001 31.8501 50.7001H33.1501H34.4501C36.5951 50.7001 38.3501 48.9451 38.3501 46.8001V40.9501C39.0651 40.9501 39.7151 40.6901 40.1701 40.1701C40.6251 39.7151 40.9501 39.0651 40.9501 38.3501V32.5001C40.9501 30.3551 39.1951 28.6001 37.0501 28.6001Z" fill="#0D0D0D"/>
</g>
<g id="Group_3">
<path id="Vector_2" d="M33.1501 26.0001C35.663 26.0001 37.7001 23.963 37.7001 21.4501C37.7001 18.9373 35.663 16.9001 33.1501 16.9001C30.6372 16.9001 28.6001 18.9373 28.6001 21.4501C28.6001 23.963 30.6372 26.0001 33.1501 26.0001Z" fill="#0D0D0D"/>
</g>
<g id="Group_4">
<path id="Vector_3" d="M23.79 43.355C23.66 43.225 23.465 43.095 23.335 42.965C22.1 41.665 21.385 40.04 21.385 38.35V32.5C21.385 30.42 22.23 28.47 23.595 27.105C23.985 26.715 23.66 26 23.14 26C22.035 26 20.8 26 20.8 26H16.9C14.755 26 13 27.755 13 29.9V35.75C13 36.465 13.325 37.115 13.78 37.57C14.235 38.025 14.885 38.35 15.6 38.35V44.2C15.6 46.345 17.355 48.1 19.5 48.1H20.8H22.1C22.685 48.1 23.205 47.97 23.66 47.775C23.92 47.645 24.05 47.45 24.05 47.19C24.05 46.41 24.05 44.59 24.05 43.875C24.05 43.68 23.985 43.485 23.79 43.355Z" fill="#0D0D0D"/>
</g>
<g id="Group_5">
<path id="Vector_4" d="M20.8 23.4C23.3129 23.4 25.35 21.3629 25.35 18.85C25.35 16.3372 23.3129 14.3 20.8 14.3C18.2871 14.3 16.25 16.3372 16.25 18.85C16.25 21.3629 18.2871 23.4 20.8 23.4Z" fill="#0D0D0D"/>
</g>
<g id="Group_6">
<path id="Vector_5" d="M49.4 26H45.5C45.5 26 44.265 26 43.16 26C42.575 26 42.315 26.65 42.705 27.105C44.07 28.535 44.915 30.42 44.915 32.5V38.35C44.915 40.04 44.265 41.665 42.965 42.965C42.835 43.095 42.705 43.225 42.51 43.355C42.38 43.485 42.25 43.68 42.25 43.875C42.25 44.59 42.25 46.345 42.25 47.19C42.25 47.45 42.38 47.71 42.64 47.775C43.095 47.97 43.615 48.1 44.2 48.1H45.5H46.8C48.945 48.1 50.7 46.345 50.7 44.2V38.35C51.415 38.35 52.065 38.09 52.52 37.57C52.975 37.115 53.3 36.465 53.3 35.75V29.9C53.3 27.755 51.545 26 49.4 26Z" fill="#0D0D0D"/>
</g>
<g id="Group_7">
<path id="Vector_6" d="M45.5 23.4C48.0128 23.4 50.05 21.3629 50.05 18.85C50.05 16.3372 48.0128 14.3 45.5 14.3C42.9871 14.3 40.95 16.3372 40.95 18.85C40.95 21.3629 42.9871 23.4 45.5 23.4Z" fill="#0D0D0D"/>
</g>
</g>
</g>
</svg>
