<svg width="54" height="54" viewBox="0 0 54 54" fill="none" xmlns="http://www.w3.org/2000/svg">
<g id="television-technology-entertainment-svgrepo-com 1">
<g id="Layer1">
<path id="Vector" fill-rule="evenodd" clip-rule="evenodd" d="M22.4387 13.4999H5.0625C4.131 13.4999 3.375 14.2559 3.375 15.1874V48.9374C3.375 49.8689 4.131 50.6249 5.0625 50.6249H48.9375C49.869 50.6249 50.625 49.8689 50.625 48.9374V15.1874C50.625 14.2559 49.869 13.4999 48.9375 13.4999H31.5613L39.9111 6.34326C40.6181 5.73745 40.6991 4.67094 40.0933 3.96388C39.4875 3.25682 38.421 3.17582 37.7139 3.78163L27 12.965L16.2861 3.78163C15.579 3.17582 14.5125 3.25682 13.9067 3.96388C13.3009 4.67094 13.3819 5.73745 14.0889 6.34326L22.4387 13.4999ZM47.25 16.8749V47.2499H6.75V16.8749H47.25ZM35.4375 20.8153C35.4375 19.8838 34.6815 19.1278 33.75 19.1278H10.125C9.1935 19.1278 8.4375 19.8838 8.4375 20.8153V43.8749C8.4375 44.8064 9.1935 45.5624 10.125 45.5624H33.75C34.6815 45.5624 35.4375 44.8064 35.4375 43.8749V20.8153ZM38.8125 39.1314H43.875C44.8065 39.1314 45.5625 38.3754 45.5625 37.4439C45.5625 36.5124 44.8065 35.7564 43.875 35.7564H38.8125C37.881 35.7564 37.125 36.5124 37.125 37.4439C37.125 38.3754 37.881 39.1314 38.8125 39.1314ZM41.3438 24.6712C39.0201 24.6712 37.125 26.5679 37.125 28.9169C37.125 31.2643 39.0201 33.1627 41.3438 33.1627C43.6674 33.1627 45.5625 31.2643 45.5625 28.9169C45.5625 26.5679 43.6674 24.6712 41.3438 24.6712Z" fill="black"/>
</g>
</g>
</svg>
