<svg width="65" height="65" viewBox="0 0 65 65" fill="none" xmlns="http://www.w3.org/2000/svg">
<g id="user-check-rounded-svgrepo-com 4">
<path id="Vector" d="M32.4998 27.0834C38.4829 27.0834 43.3332 22.2332 43.3332 16.2501C43.3332 10.267 38.4829 5.41675 32.4998 5.41675C26.5168 5.41675 21.6665 10.267 21.6665 16.2501C21.6665 22.2332 26.5168 27.0834 32.4998 27.0834Z" fill="#0D0D0D"/>
<path id="Vector_2" fill-rule="evenodd" clip-rule="evenodd" d="M44.6877 59.5833C40.2192 59.5833 37.9848 59.5833 36.5968 58.195C35.2085 56.807 35.2085 54.5726 35.2085 50.1042C35.2085 45.6357 35.2085 43.4013 36.5968 42.0133C37.9848 40.625 40.2192 40.625 44.6877 40.625C49.1561 40.625 51.3905 40.625 52.7785 42.0133C54.1668 43.4013 54.1668 45.6357 54.1668 50.1042C54.1668 54.5726 54.1668 56.807 52.7785 58.195C51.3905 59.5833 49.1561 59.5833 44.6877 59.5833ZM50.0177 48.0615C50.6346 47.4446 50.6346 46.4444 50.0177 45.8274C49.4007 45.2102 48.4005 45.2102 47.7836 45.8274L42.5811 51.0296L41.5918 50.0403C40.9748 49.4233 39.9746 49.4233 39.3577 50.0403C38.7407 50.6572 38.7407 51.6577 39.3577 52.2746L41.4639 54.3809C42.0809 54.9981 43.0814 54.9981 43.6983 54.3809L50.0177 48.0615Z" fill="#0D0D0D"/>
<path id="Vector_3" d="M41.748 36.5825C39.0123 35.7071 35.8582 35.2083 32.4998 35.2083C22.0294 35.2083 13.5415 40.0586 13.5415 46.0416C13.5415 51.839 21.5106 56.5727 31.5305 56.8611C31.4571 56.519 31.4003 56.1794 31.3556 55.846C31.1451 54.2814 31.1454 52.3696 31.1457 50.337V49.8712C31.1454 47.8386 31.1451 45.9268 31.3556 44.3621C31.5896 42.621 32.1491 40.7151 33.7237 39.1405C35.2986 37.5659 37.2042 37.0063 38.9454 36.772C39.7904 36.6586 40.7364 36.6063 41.748 36.5825Z" fill="#0D0D0D"/>
</g>
</svg>
