<svg width="78" height="192" viewBox="0 0 78 192" fill="none" xmlns="http://www.w3.org/2000/svg">
<path id="Vector" d="M0.436493 184.701C4.16508 183.872 7.87351 182.664 11.7755 181.008C11.8222 180.986 11.938 180.854 11.9743 180.736C12.3633 179.401 12.4935 178.057 12.3736 176.625C11.6096 167.485 17.0161 157.854 25.2275 153.726C25.4021 153.636 25.5842 153.559 25.7939 153.473L25.9887 153.391C26.1736 153.312 26.3989 153.345 26.5482 153.466C26.7095 153.591 26.7896 153.795 26.7568 154L26.532 155.401C26.3327 156.642 26.1373 157.855 25.9501 159.07L25.9028 159.387C25.3756 162.839 24.8305 166.409 23.7686 169.838C22.8104 172.932 21.3318 175.374 19.2754 177.245C23.6199 174.666 27.6683 171.566 31.345 168.002C31.4222 167.927 31.5139 167.729 31.5271 167.565L31.6256 165.119C31.6262 165.032 31.6274 164.801 31.5784 164.687C29.7674 160.44 29.3036 155.659 30.1592 150.072C30.9843 144.684 33.2695 139.729 36.952 135.345C37.383 134.831 37.7633 134.572 38.0825 134.572C38.1603 134.572 38.2306 134.587 38.2859 134.616C38.4553 134.701 38.57 134.865 38.5925 135.055L38.691 135.908C38.7671 136.541 38.8402 137.163 38.9059 137.786C39.0194 138.884 39.1439 139.979 39.2689 141.076L39.2868 141.234C39.598 143.971 39.9206 146.802 40.0912 149.636C40.2894 152.942 40.2306 156.804 38.2894 160.376C38.279 160.394 38.2698 160.413 38.2594 160.431C40.9578 157.034 43.421 153.379 45.6187 149.505C45.8129 149.161 45.8296 148.858 45.7933 148.42C45.6371 146.565 44.7809 145.058 43.8791 143.707C42.1373 141.09 41.0828 137.996 40.4599 133.676C39.5893 127.634 40.4686 121.573 43.0719 115.66C43.1433 115.497 43.2269 115.34 43.3162 115.171L43.5196 114.785C43.617 114.596 43.825 114.472 44.0445 114.482C44.2635 114.493 44.4565 114.633 44.536 114.836C45.1675 116.44 45.7783 117.984 46.385 119.517L46.7728 120.497C48.0669 123.769 49.5184 127.589 50.362 131.531C50.9566 134.312 50.9929 136.997 50.4714 139.552C52.495 134.704 54.1585 129.58 55.4325 124.267C55.4469 124.208 55.4515 124.055 55.3253 123.702C54.7296 122.06 53.6446 120.572 52.2698 119.511C49.2603 117.187 47.553 113.957 46.2801 111.105C43.674 105.271 42.967 99.0727 44.1194 92.1555C44.1315 92.083 44.1534 92.0111 44.1793 91.9327L44.2001 91.8701C44.2502 91.7152 44.3643 91.5899 44.5152 91.5244C44.6628 91.4623 44.8483 91.4739 44.963 91.5308C45.0782 91.5731 45.2528 91.6375 45.3663 91.8051C46.0186 92.6822 46.6806 93.5673 47.3432 94.4519L47.4544 94.601C49.1254 96.8348 50.8535 99.1434 52.5141 101.443C54.438 104.101 55.7967 106.684 56.6685 109.34C57.0891 110.623 57.3639 111.858 57.4936 113.058C58.0473 108.747 58.3613 104.347 58.4299 99.9091C58.446 98.8499 58.3124 98.0083 57.5938 97.0865C56.8333 96.1039 56.1228 95.5552 55.1433 95.1932C51.1185 93.7129 48.5366 90.5847 46.7371 88.0249C43.8301 83.8839 42.1252 79.0654 41.5248 73.2938C41.4608 72.6998 41.4245 72.0989 41.3871 71.4631L41.3778 71.3187C41.36 71.0095 41.341 70.6876 41.3168 70.3465C41.3018 70.1203 41.4222 69.908 41.6233 69.8053C41.8181 69.7067 42.0676 69.7357 42.237 69.8802L42.7146 70.292C42.8944 70.4463 43.0482 70.5785 43.2079 70.7073C43.9748 71.3274 44.7446 71.9411 45.5161 72.5565L45.5968 72.6203C47.2902 73.9707 49.0419 75.3669 50.7146 76.8089C53.9603 79.5955 56.0502 82.3694 57.2919 85.5394C57.497 86.062 57.6768 86.5788 57.8312 87.0904C57.3207 82.0532 56.4916 77.0926 55.353 72.2799C55.2147 71.6911 55.1375 71.5182 54.8534 71.4243C54.6748 71.3634 54.5083 71.2462 54.3867 71.1012C53.561 70.1563 52.4737 70.0066 51.4204 69.9852C47.9056 69.9022 45.118 68.1371 42.8552 66.4213C37.307 62.2147 33.4868 51.5417 33.4868 51.1797C33.4868 50.9912 33.5801 50.8155 33.7386 50.7093C33.8947 50.6055 34.1056 50.591 34.2646 50.6623C35.4205 51.1559 36.5764 51.6368 37.7731 52.1351C40.4064 53.2343 43.1289 54.37 45.7437 55.6119C48.3752 56.8654 50.4547 58.5418 51.9413 60.6045C50.5244 56.5516 48.8817 52.5782 47.0425 48.7597C46.831 48.3479 45.8376 47.9105 44.4133 47.9105C43.95 47.9105 43.5011 47.9604 43.1134 48.0544C39.7668 48.8618 36.4484 48.3723 32.7757 46.5248C29.0183 44.6338 25.9011 41.5421 23.246 37.0704C23.1953 36.984 23.0956 36.7201 23.042 36.5722C22.9746 36.3912 23.0017 36.1917 23.1134 36.0403C23.2172 35.8964 23.3831 35.8106 23.5946 35.8106C23.5963 35.8106 23.5974 35.8106 23.5992 35.8106L24.9256 35.8947C25.7386 35.9463 26.528 35.9968 27.3174 36.0374L28.1604 36.0803C30.6772 36.2079 33.2805 36.339 35.8273 36.9498C38.7319 37.6528 40.8644 38.7323 42.4997 40.3333C40.5642 37.0902 38.4916 34.0043 36.3084 31.1138C36.2497 31.0373 35.9679 30.9201 35.7368 30.8812C35.6216 30.854 35.2021 30.7652 34.6444 30.7652C33.9045 30.7652 33.2569 30.9166 32.7078 31.2206C29.2189 32.9381 25.3007 33.0657 21.0466 31.5947C17.5571 30.3946 14.6018 28.1654 12.0112 24.7819C11.9271 24.6729 11.851 24.554 11.7819 24.4287C11.7029 24.2843 11.6978 24.1253 11.7669 23.9803C11.9674 23.5569 12.8352 23.3579 13.2005 23.2918C14.097 23.134 15.1129 22.9542 16.1201 22.8167C16.5816 22.7517 17.0437 22.6839 17.507 22.6149L17.5664 22.6056C19.1359 22.3724 20.7585 22.1311 22.3932 22.0481C25.3802 21.8944 28.0325 22.5081 30.203 23.8666C28.7435 22.3028 27.2523 20.819 25.738 19.4251C25.2592 18.9854 24.7176 18.5423 23.9795 17.986C23.9224 17.9419 23.7772 17.8903 23.5992 17.8799C18.3679 17.6739 14.0147 15.3491 10.2924 10.7736C8.26476 8.28282 6.71017 5.14124 5.53875 1.16901L5.49841 1.0327C5.37337 0.61506 5.30423 0.385356 5.59176 0.11621C5.81359 -0.09145 6.20426 -0.0299623 7.21952 0.374917C8.14144 0.731652 9.06913 1.07795 10.0216 1.43352C11.9352 2.14757 13.9144 2.88598 15.8245 3.7201C19.0167 5.11688 21.5658 7.23408 23.3998 10.012C24.7965 12.1257 25.3485 14.2493 25.0887 16.4929C25.0904 16.5179 25.1123 16.5776 25.1157 16.5846C28.4479 19.4808 31.6331 22.7413 34.9036 26.6219C32.7227 23.2651 31.3012 19.4002 30.5879 14.9198C29.8688 10.4029 29.8233 6.38256 30.4479 2.62959C30.4876 2.39467 30.5412 2.15975 30.6098 1.86566L30.7118 1.41264C30.7579 1.21832 30.9031 1.06112 31.0938 1.0008C31.2845 0.943951 31.4983 0.994416 31.6406 1.13073C31.8688 1.34709 32.0924 1.55127 32.3107 1.74965L32.4646 1.88944C33.0235 2.39641 33.5513 2.87496 34.029 3.41615C38.6703 8.68712 41.3773 14.2545 42.3044 20.4367C42.7267 23.2309 42.5516 25.6097 41.7685 27.7072C41.5092 28.4021 41.1047 29.0227 40.702 29.6388C40.5176 29.9201 40.3332 30.2026 40.1644 30.4926C40.0399 30.7008 40.0295 30.7548 40.0301 30.7449C40.1067 31.5715 40.2168 32.4926 40.3655 33.5982C40.3718 33.6121 40.3925 33.6446 40.4588 33.7328L40.5124 33.8076C43.0505 37.3593 45.3922 41.1036 47.4994 44.9789C46.6708 42.0844 46.0111 38.4208 46.0577 34.1638C46.1142 29.0575 47.2822 24.5035 49.6296 20.2395C49.7224 20.0736 49.8906 19.9657 50.1263 19.9495C50.2974 19.9495 50.4622 20.0348 50.57 20.1804C50.6403 20.279 50.7117 20.3718 50.7797 20.4599C50.9312 20.6572 51.073 20.8439 51.1997 21.0435C53.0689 23.9942 54.0715 27.2478 54.737 29.753C55.9534 34.3477 56.5123 38.1841 56.4962 41.8275C56.487 44.9244 55.9263 47.305 54.7313 49.3195C54.3596 49.9465 53.8918 50.4953 53.4216 51.0475C53.1721 51.3404 52.9157 51.6415 52.6835 51.95C52.521 52.1647 52.4426 52.3833 52.438 52.5052C52.4075 53.2395 52.4236 53.986 52.4392 54.7076L52.4501 55.2065C52.4518 55.2923 52.4714 55.3909 52.5008 55.4663C54.0012 59.1259 55.3202 62.9294 56.4449 66.8354C56.2795 65.5054 56.1862 64.2177 56.1626 62.9613C56.0266 55.83 58.1994 49.4616 62.6223 44.0305L63.5443 42.9C63.6509 42.7672 63.8087 42.6918 63.977 42.6918L64.0692 42.6999C64.2662 42.7329 64.4322 42.8704 64.5008 43.0578C64.5849 43.2834 64.6673 43.4963 64.7474 43.7022C64.9018 44.1001 65.0476 44.4772 65.1709 44.8606C66.1199 47.8531 66.5855 51.1223 66.68 55.4588L66.6817 55.5435C66.7526 58.6984 66.8499 63.0204 65.5627 67.1562C64.2956 71.2276 62.0611 73.2851 61.6278 73.6546L61.5817 73.6964C60.4022 74.7561 59.6342 75.7254 59.4751 76.3548C59.4112 76.6088 59.3461 76.8635 59.27 77.1152C58.9335 78.2353 59.1438 79.3026 59.3708 80.4552C59.4838 81.037 59.6013 81.6379 59.6422 82.2545C59.8047 84.7221 60.0041 87.2314 60.1971 89.6578L60.2144 89.8822C60.264 90.5012 60.3135 91.1201 60.3625 91.739C60.8546 86.1867 62.6811 81.1396 65.8237 76.6761C67.7482 73.9452 70.0427 71.6087 72.6448 69.7299C72.7571 69.6487 72.8753 69.5762 73.0331 69.4817C73.1098 69.437 73.1985 69.3836 73.3063 69.3158C73.4687 69.2177 73.6773 69.209 73.845 69.2914C74.0167 69.3755 74.1348 69.5466 74.1544 69.7404C74.1896 70.0913 74.2305 70.4312 74.2737 70.7839C74.3607 71.5061 74.4431 72.1882 74.4466 72.8889C74.4852 80.1524 72.9588 86.9588 69.9084 93.1166C69.0585 94.8348 67.9355 96.3209 66.5693 97.5355C65.2147 98.7333 63.7529 99.4398 62.1032 99.6939C62.0669 99.7003 61.9805 99.7531 61.9672 99.7635C61.8779 99.9439 61.7851 100.125 61.6924 100.306C61.3628 100.947 61.0222 101.61 60.8528 102.275C60.7117 102.837 60.7117 103.451 60.7117 104.102C60.7117 104.341 60.7117 104.581 60.7042 104.816C60.5457 110.443 60.3377 112.402 59.4434 117.43C59.9891 115.935 60.6742 114.436 61.5587 112.994C65.1403 107.158 69.6906 103.197 75.4693 100.885C75.8369 100.736 76.2057 100.629 76.6332 100.504L76.7185 100.478C76.892 100.427 77.0758 100.373 77.2722 100.312C77.4497 100.254 77.652 100.294 77.7966 100.414C77.9406 100.534 78.0161 100.718 77.9971 100.91C77.9545 101.309 77.9251 101.697 77.898 102.076C77.8386 102.906 77.7828 103.69 77.5828 104.467C75.7182 111.717 72.6321 117.491 68.1487 122.121C66.2317 124.1 64.2115 125.234 61.973 125.59C61.4083 125.679 60.718 125.69 59.5495 125.617L59.213 125.596C59.1617 125.593 59.1167 125.591 59.0758 125.591C58.9836 125.591 58.9762 125.591 58.9122 125.686L57.3467 127.85C57.3265 127.878 57.2971 127.981 57.2769 128.052L57.2539 128.129C55.629 133.675 53.6129 139.016 51.2355 144.085C52.3055 142.598 53.478 141.241 54.7849 139.964C60.7946 134.094 71.0694 133.924 72.2213 133.924L72.3647 133.925L72.4552 133.942C72.7375 134.043 72.8902 134.347 72.8032 134.633C72.7231 134.903 72.6482 135.175 72.5624 135.496C72.3982 136.097 72.2276 136.718 71.9885 137.319C70.8499 140.184 69.0043 142.939 66.1792 145.993C64.238 148.087 62.0496 150.211 59.2037 151.554C56.0871 153.027 53.2729 153.387 50.4743 152.665C49.9984 152.539 49.451 152.38 48.9802 152.072C48.6449 151.856 48.5533 151.863 48.2237 152.11C47.833 152.402 47.4176 152.648 47.0142 152.886C46.7912 153.017 46.5665 153.15 46.3568 153.284C46.3234 153.312 46.2519 153.43 46.2254 153.473C43.7143 157.596 40.948 161.428 37.961 164.924C39.5766 163.74 41.2355 162.884 42.9975 162.314C48.3821 160.567 54.026 160.789 59.6157 162.965C60.4501 163.291 61.3645 163.784 61.4256 163.819C61.5535 163.903 61.6417 164.04 61.6693 164.197C61.6935 164.352 61.6538 164.509 61.5604 164.63C61.3858 164.859 61.217 165.088 61.0499 165.316L61.013 165.366C60.6356 165.884 60.2081 166.469 59.7287 166.987C57.5696 169.317 54.907 170.88 52.351 172.221C48.8362 174.057 45.2418 175.046 41.6671 175.162C41.4988 175.167 41.3306 175.171 41.1629 175.171C37.8745 175.171 35.3076 174.08 33.3289 171.848C33.3047 171.831 33.2188 171.798 33.1716 171.797C32.4156 171.852 31.6971 171.963 31.1601 172.052C31.0754 172.068 30.9711 172.119 30.906 172.178C27.6003 175.124 24.0993 177.71 20.4422 179.91C20.9965 179.745 21.5675 179.601 22.1518 179.486C26.0601 178.729 30.0486 179.204 34.4283 180.956C37.383 182.141 40.1309 183.883 42.8293 186.281C43.0517 186.477 43.0828 186.815 42.8996 187.05C41.9448 188.273 40.7025 188.958 39.6129 189.466C36.9555 190.709 33.9558 191.505 30.4392 191.901C30.4289 191.901 29.299 192 27.7144 192C26.5706 192 25.5064 191.948 24.5528 191.847C23.6412 191.751 22.732 191.593 21.8498 191.38C17.798 190.387 15.0524 188.345 13.4794 185.175C13.4511 185.148 13.3301 185.077 13.1769 185.039C12.4457 184.857 11.7876 184.728 11.1619 184.644C11.0144 184.62 10.8306 184.66 10.5989 184.754C7.80091 185.839 4.83981 186.744 1.80382 187.441C1.76118 187.451 1.71681 187.456 1.67244 187.456C1.46847 187.456 1.28062 187.343 1.18152 187.159C0.891685 186.616 0.538475 186.095 0.132256 185.611C0.00491333 185.458 -0.0331116 185.255 0.0296936 185.067C0.0896225 184.885 0.241737 184.747 0.436493 184.701Z" fill="black"/>
</svg>
