<svg width="54" height="54" viewBox="0 0 54 54" fill="none" xmlns="http://www.w3.org/2000/svg">
<g id="wheel-svgrepo-com 1" clip-path="url(#clip0_289_6347)">
<g id="Group">
<path id="Vector" d="M27 9.55371C31.8164 9.55371 36.1802 11.5049 39.3354 14.6645C42.4907 17.8198 44.4463 22.1836 44.4463 27C44.4463 31.8164 42.4951 36.1802 39.3354 39.3354C36.1802 42.4907 31.8164 44.4463 27 44.4463C22.1836 44.4463 17.8198 42.4951 14.6645 39.3354C11.5093 36.1802 9.55371 31.8164 9.55371 27C9.55371 22.1836 11.5049 17.8198 14.6645 14.6645C17.8198 11.5093 22.1836 9.55371 27 9.55371ZM27 0C34.4575 0 41.2075 3.02344 46.0898 7.91016C50.9766 12.7969 54 19.5469 54 27C54 34.4575 50.9766 41.2075 46.0898 46.0898C41.2031 50.9766 34.4531 54 27 54C19.5425 54 12.7925 50.9766 7.91016 46.0898C3.02344 41.2075 0 34.4575 0 27C0 19.5425 3.02344 12.7925 7.91016 7.91016C12.7925 3.02344 19.5425 0 27 0ZM41.0757 12.9243C37.4722 9.3208 32.4976 7.09277 27 7.09277C21.5024 7.09277 16.5278 9.3208 12.9243 12.9243C9.3208 16.5278 7.09277 21.5024 7.09277 27C7.09277 32.4976 9.3208 37.4722 12.9243 41.0757C16.5278 44.6792 21.5024 46.9072 27 46.9072C32.4976 46.9072 37.4722 44.6792 41.0757 41.0757C44.6792 37.4722 46.9072 32.4976 46.9072 27C46.9072 21.5024 44.6792 16.5278 41.0757 12.9243ZM28.7622 24.9478C28.314 24.4995 27.6943 24.2227 27 24.2227C26.3101 24.2227 25.686 24.4995 25.2378 24.9478L25.2334 24.9521C24.7852 25.4004 24.5083 26.02 24.5083 26.7144C24.5083 27.4043 24.7852 28.0283 25.2334 28.4766L25.2378 28.481C25.686 28.9292 26.3057 29.2061 27 29.2061C27.6899 29.2061 28.314 28.9292 28.7622 28.481L28.7666 28.4766C29.2148 28.0283 29.4917 27.4043 29.4917 26.7144C29.4873 26.02 29.2104 25.4004 28.7622 24.9478ZM28.5908 22.3198C29.2368 22.5571 29.8213 22.9307 30.3003 23.4097C30.4629 23.5723 30.6167 23.748 30.7529 23.937L30.7969 23.9238L40.0342 21.4497C39.3179 19.7666 38.2852 18.2505 37.0107 16.9805C34.8003 14.77 31.8604 13.2847 28.5864 12.9199V22.2012C28.5952 22.2407 28.5952 22.2803 28.5908 22.3198ZM31.6582 27.0835C31.5967 27.8437 31.355 28.5557 30.9683 29.1753C30.9902 29.2017 31.0078 29.2324 31.0254 29.2632L36.3296 37.6699C36.5669 37.4634 36.7954 37.248 37.0195 37.0239C39.5815 34.4619 41.168 30.9155 41.168 27.0044C41.168 26.1826 41.0977 25.3784 40.9614 24.5918L31.6582 27.0835ZM28.3755 31.1792C27.9404 31.3154 27.479 31.3857 27 31.3857C26.5693 31.3857 26.1519 31.3286 25.752 31.2187L20.5752 39.6343C22.5044 40.6187 24.6885 41.1724 27 41.1724C29.3994 41.1724 31.6582 40.5747 33.6401 39.5244L28.3755 31.1792ZM23.102 29.2852C22.6978 28.6787 22.4341 27.9712 22.355 27.2153H22.3506L13.0825 24.3149C12.9155 25.1851 12.8276 26.0815 12.8276 27C12.8276 30.9111 14.4141 34.4575 16.9761 37.0195C17.2529 37.2964 17.543 37.5644 17.8462 37.8193L23.0317 29.3862C23.0581 29.3555 23.0801 29.3203 23.102 29.2852ZM23.168 24.0469C23.3262 23.8228 23.502 23.6074 23.6997 23.4141C24.1611 22.957 24.7148 22.5923 25.3301 22.355C25.3257 22.3066 25.3213 22.2539 25.3213 22.2056V12.9331C22.0781 13.3154 19.1689 14.792 16.9805 16.9849C15.772 18.1934 14.7788 19.6216 14.0669 21.2036L23.168 24.0469Z" fill="black"/>
</g>
</g>
<defs>
<clipPath id="clip0_289_6347">
<rect width="54" height="54" fill="white"/>
</clipPath>
</defs>
</svg>
