<svg width="78" height="192" viewBox="0 0 78 192" fill="none" xmlns="http://www.w3.org/2000/svg">
<g id="_x33_8-Award_symbol">
<g id="Group">
<path id="Vector" d="M77.5635 184.701C73.8349 183.872 70.1265 182.664 66.2245 181.008C66.1778 180.986 66.062 180.854 66.0257 180.736C65.6367 179.401 65.5065 178.057 65.6264 176.625C66.3904 167.485 60.9839 157.854 52.7725 153.726C52.5979 153.636 52.4158 153.559 52.2061 153.473L52.0113 153.391C51.8264 153.312 51.6011 153.345 51.4518 153.466C51.2905 153.591 51.2104 153.795 51.2432 154L51.468 155.401C51.6673 156.642 51.8627 157.855 52.0499 159.07L52.0972 159.387C52.6244 162.839 53.1695 166.409 54.2314 169.838C55.1896 172.932 56.6682 175.374 58.7246 177.245C54.3801 174.666 50.3317 171.566 46.655 168.002C46.5778 167.927 46.4861 167.729 46.4729 167.565L46.3744 165.119C46.3738 165.032 46.3726 164.801 46.4216 164.687C48.2326 160.44 48.6964 155.659 47.8408 150.072C47.0157 144.684 44.7305 139.729 41.048 135.345C40.617 134.831 40.2367 134.572 39.9175 134.572C39.8397 134.572 39.7694 134.587 39.7141 134.616C39.5447 134.701 39.43 134.865 39.4075 135.055L39.309 135.908C39.2329 136.541 39.1598 137.163 39.0941 137.786C38.9806 138.884 38.8561 139.979 38.7311 141.076L38.7132 141.234C38.402 143.971 38.0794 146.802 37.9088 149.636C37.7106 152.942 37.7694 156.804 39.7106 160.376C39.721 160.394 39.7302 160.413 39.7406 160.431C37.0422 157.034 34.579 153.379 32.3813 149.505C32.1871 149.161 32.1704 148.858 32.2067 148.42C32.3629 146.565 33.2191 145.058 34.1209 143.707C35.8627 141.09 36.9172 137.996 37.5401 133.676C38.4107 127.634 37.5314 121.573 34.9281 115.66C34.8567 115.497 34.7731 115.34 34.6838 115.171L34.4804 114.785C34.383 114.596 34.175 114.472 33.9555 114.482C33.7365 114.493 33.5435 114.633 33.464 114.836C32.8325 116.44 32.2217 117.984 31.615 119.517L31.2272 120.497C29.9331 123.769 28.4816 127.589 27.638 131.531C27.0434 134.312 27.0071 136.997 27.5286 139.552C25.505 134.704 23.8415 129.58 22.5675 124.267C22.5531 124.208 22.5485 124.055 22.6747 123.702C23.2704 122.06 24.3554 120.572 25.7302 119.511C28.7397 117.187 30.447 113.957 31.7199 111.105C34.326 105.271 35.033 99.0727 33.8806 92.1555C33.8685 92.083 33.8466 92.0111 33.8207 91.9327L33.7999 91.8701C33.7498 91.7152 33.6357 91.5899 33.4848 91.5244C33.3372 91.4623 33.1517 91.4739 33.037 91.5308C32.9218 91.5731 32.7472 91.6375 32.6337 91.8051C31.9814 92.6822 31.3194 93.5673 30.6568 94.4519L30.5456 94.601C28.8746 96.8348 27.1465 99.1434 25.4859 101.443C23.562 104.101 22.2033 106.684 21.3315 109.34C20.9109 110.623 20.6361 111.858 20.5064 113.058C19.9527 108.747 19.6387 104.347 19.5701 99.9091C19.554 98.8499 19.6876 98.0083 20.4062 97.0865C21.1667 96.1039 21.8772 95.5552 22.8567 95.1932C26.8815 93.7129 29.4634 90.5847 31.2629 88.0249C34.1699 83.8839 35.8748 79.0654 36.4752 73.2938C36.5392 72.6998 36.5755 72.0989 36.6129 71.4631L36.6222 71.3187C36.64 71.0095 36.659 70.6876 36.6832 70.3465C36.6982 70.1203 36.5778 69.908 36.3767 69.8053C36.1819 69.7067 35.9324 69.7357 35.763 69.8802L35.2854 70.292C35.1056 70.4463 34.9518 70.5785 34.7921 70.7073C34.0252 71.3274 33.2554 71.9411 32.4839 72.5565L32.4032 72.6203C30.7098 73.9707 28.9581 75.3669 27.2854 76.8089C24.0397 79.5955 21.9498 82.3694 20.7081 85.5394C20.503 86.062 20.3232 86.5788 20.1688 87.0904C20.6793 82.0532 21.5084 77.0926 22.647 72.2799C22.7853 71.6911 22.8625 71.5182 23.1466 71.4243C23.3252 71.3634 23.4917 71.2462 23.6133 71.1012C24.439 70.1563 25.5263 70.0066 26.5796 69.9852C30.0944 69.9022 32.882 68.1371 35.1448 66.4213C40.693 62.2147 44.5132 51.5417 44.5132 51.1797C44.5132 50.9912 44.4199 50.8155 44.2614 50.7093C44.1053 50.6055 43.8944 50.591 43.7354 50.6623C42.5795 51.1559 41.4236 51.6368 40.2269 52.1351C37.5936 53.2343 34.8711 54.37 32.2563 55.6119C29.6248 56.8654 27.5453 58.5418 26.0587 60.6045C27.4756 56.5516 29.1183 52.5782 30.9575 48.7597C31.169 48.3479 32.1624 47.9105 33.5867 47.9105C34.05 47.9105 34.4989 47.9604 34.8866 48.0544C38.2332 48.8618 41.5516 48.3723 45.2243 46.5248C48.9817 44.6338 52.0989 41.5421 54.754 37.0704C54.8047 36.984 54.9044 36.7201 54.958 36.5722C55.0254 36.3912 54.9983 36.1917 54.8866 36.0403C54.7828 35.8964 54.6169 35.8106 54.4054 35.8106C54.4037 35.8106 54.4026 35.8106 54.4008 35.8106L53.0744 35.8947C52.2614 35.9463 51.472 35.9968 50.6826 36.0374L49.8396 36.0803C47.3228 36.2079 44.7195 36.339 42.1727 36.9498C39.2681 37.6528 37.1356 38.7323 35.5003 40.3333C37.4358 37.0902 39.5084 34.0043 41.6916 31.1138C41.7503 31.0373 42.0321 30.9201 42.2632 30.8812C42.3784 30.854 42.7979 30.7652 43.3556 30.7652C44.0955 30.7652 44.7431 30.9166 45.2922 31.2206C48.7811 32.9381 52.6993 33.0657 56.9534 31.5947C60.4429 30.3946 63.3982 28.1654 65.9888 24.7819C66.0729 24.6729 66.149 24.554 66.2181 24.4287C66.2971 24.2843 66.3022 24.1253 66.2331 23.9803C66.0326 23.5569 65.1648 23.3579 64.7995 23.2918C63.903 23.134 62.8871 22.9542 61.8799 22.8167C61.4184 22.7517 60.9563 22.6839 60.493 22.6149L60.4336 22.6056C58.8641 22.3724 57.2415 22.1311 55.6068 22.0481C52.6198 21.8944 49.9675 22.5081 47.797 23.8666C49.2565 22.3028 50.7477 20.819 52.262 19.4251C52.7408 18.9854 53.2824 18.5423 54.0205 17.986C54.0776 17.9419 54.2228 17.8903 54.4008 17.8799C59.6321 17.6739 63.9853 15.3491 67.7076 10.7736C69.7352 8.28282 71.2898 5.14124 72.4613 1.16901L72.5016 1.0327C72.6266 0.61506 72.6958 0.385356 72.4082 0.11621C72.1864 -0.09145 71.7957 -0.0299623 70.7805 0.374917C69.8586 0.731652 68.9309 1.07795 67.9784 1.43352C66.0648 2.14757 64.0856 2.88598 62.1755 3.7201C58.9833 5.11688 56.4342 7.23408 54.6002 10.012C53.2035 12.1257 52.6515 14.2493 52.9113 16.4929C52.9096 16.5179 52.8877 16.5776 52.8843 16.5846C49.5521 19.4808 46.3669 22.7413 43.0964 26.6219C45.2773 23.2651 46.6988 19.4002 47.4121 14.9198C48.1312 10.4029 48.1767 6.38256 47.5521 2.62959C47.5124 2.39467 47.4588 2.15975 47.3902 1.86566L47.2882 1.41264C47.2421 1.21832 47.0969 1.06112 46.9062 1.0008C46.7155 0.943951 46.5017 0.994416 46.3594 1.13073C46.1312 1.34709 45.9076 1.55127 45.6893 1.74965L45.5354 1.88944C44.9765 2.39641 44.4487 2.87496 43.971 3.41615C39.3297 8.68712 36.6227 14.2545 35.6956 20.4367C35.2733 23.2309 35.4484 25.6097 36.2315 27.7072C36.4908 28.4021 36.8953 29.0227 37.298 29.6388C37.4824 29.9201 37.6668 30.2026 37.8356 30.4926C37.9601 30.7008 37.9705 30.7548 37.9699 30.7449C37.8933 31.5715 37.7832 32.4926 37.6345 33.5982C37.6282 33.6121 37.6075 33.6446 37.5412 33.7328L37.4876 33.8076C34.9495 37.3593 32.6078 41.1036 30.5006 44.9789C31.3292 42.0844 31.9889 38.4208 31.9423 34.1638C31.8858 29.0575 30.7178 24.5035 28.3704 20.2395C28.2776 20.0736 28.1094 19.9657 27.8737 19.9495C27.7026 19.9495 27.5378 20.0348 27.43 20.1804C27.3597 20.279 27.2883 20.3718 27.2203 20.4599C27.0688 20.6572 26.927 20.8439 26.8003 21.0435C24.9311 23.9942 23.9285 27.2478 23.263 29.753C22.0466 34.3477 21.4877 38.1841 21.5038 41.8275C21.513 44.9244 22.0737 47.305 23.2687 49.3195C23.6404 49.9465 24.1082 50.4953 24.5784 51.0475C24.8279 51.3404 25.0843 51.6415 25.3165 51.95C25.479 52.1647 25.5574 52.3833 25.562 52.5052C25.5925 53.2395 25.5764 53.986 25.5608 54.7076L25.5499 55.2065C25.5482 55.2923 25.5286 55.3909 25.4992 55.4663C23.9988 59.1259 22.6798 62.9294 21.5551 66.8354C21.7205 65.5054 21.8138 64.2177 21.8374 62.9613C21.9734 55.83 19.8006 49.4616 15.3777 44.0305L14.4557 42.9C14.3491 42.7672 14.1913 42.6918 14.023 42.6918L13.9308 42.6999C13.7338 42.7329 13.5678 42.8704 13.4992 43.0578C13.4151 43.2834 13.3327 43.4963 13.2526 43.7022C13.0982 44.1001 12.9524 44.4772 12.8291 44.8606C11.8801 47.8531 11.4145 51.1223 11.32 55.4588L11.3183 55.5435C11.2474 58.6984 11.1501 63.0204 12.4373 67.1562C13.7044 71.2276 15.9389 73.2851 16.3722 73.6546L16.4183 73.6964C17.5978 74.7561 18.3658 75.7254 18.5249 76.3548C18.5888 76.6088 18.6539 76.8635 18.73 77.1152C19.0665 78.2353 18.8562 79.3026 18.6292 80.4552C18.5162 81.037 18.3987 81.6379 18.3578 82.2545C18.1953 84.7221 17.9959 87.2314 17.8029 89.6578L17.7856 89.8822C17.736 90.5012 17.6865 91.1201 17.6375 91.739C17.1454 86.1867 15.3189 81.1396 12.1763 76.6761C10.2518 73.9452 7.95734 71.6087 5.35522 69.7299C5.24286 69.6487 5.12474 69.5762 4.96686 69.4817C4.89023 69.437 4.80149 69.3836 4.69374 69.3158C4.53126 69.2177 4.32267 69.209 4.155 69.2914C3.98329 69.3755 3.86517 69.5466 3.84558 69.7404C3.81043 70.0913 3.76952 70.4312 3.7263 70.7839C3.6393 71.5061 3.5569 72.1882 3.55344 72.8889C3.51484 80.1524 5.04119 86.9588 8.0916 93.1166C8.94149 94.8348 10.0645 96.3209 11.4307 97.5355C12.7853 98.7333 14.2471 99.4398 15.8968 99.6939C15.9331 99.7003 16.0195 99.7531 16.0328 99.7635C16.1221 99.9439 16.2149 100.125 16.3076 100.306C16.6372 100.947 16.9778 101.61 17.1472 102.275C17.2883 102.837 17.2883 103.451 17.2883 104.102C17.2883 104.341 17.2883 104.581 17.2958 104.816C17.4543 110.443 17.6623 112.402 18.5566 117.43C18.0109 115.935 17.3258 114.436 16.4413 112.994C12.8597 107.158 8.3094 103.197 2.53069 100.885C2.16307 100.736 1.7943 100.629 1.36676 100.504L1.28149 100.478C1.10805 100.427 0.924241 100.373 0.727757 100.312C0.550287 100.254 0.348041 100.294 0.203414 100.414C0.0593642 100.534 -0.0161181 100.718 0.00289655 100.91C0.0455354 101.309 0.0749216 101.697 0.102003 102.076C0.161352 102.906 0.217243 103.69 0.417185 104.467C2.28177 111.717 5.3679 117.491 9.85131 122.121C11.7683 124.1 13.7885 125.234 16.027 125.59C16.5917 125.679 17.282 125.69 18.4505 125.617L18.787 125.596C18.8383 125.593 18.8833 125.591 18.9242 125.591C19.0164 125.591 19.0238 125.591 19.0878 125.686L20.6533 127.85C20.6735 127.878 20.7029 127.981 20.7231 128.052L20.7461 128.129C22.371 133.675 24.3871 139.016 26.7645 144.085C25.6945 142.598 24.522 141.241 23.2151 139.964C17.2054 134.094 6.93055 133.924 5.77873 133.924L5.63526 133.925L5.54479 133.942C5.26245 134.043 5.10976 134.347 5.19677 134.633C5.27686 134.903 5.35177 135.175 5.43762 135.496C5.60184 136.097 5.77239 136.718 6.01151 137.319C7.15009 140.184 8.99566 142.939 11.8208 145.993C13.762 148.087 15.9504 150.211 18.7963 151.554C21.9129 153.027 24.7271 153.387 27.5257 152.665C28.0016 152.539 28.549 152.38 29.0198 152.072C29.3551 151.856 29.4467 151.863 29.7763 152.11C30.167 152.402 30.5824 152.648 30.9858 152.886C31.2088 153.017 31.4335 153.15 31.6432 153.284C31.6766 153.312 31.7481 153.43 31.7746 153.473C34.2857 157.596 37.052 161.428 40.039 164.924C38.4234 163.74 36.7645 162.884 35.0025 162.314C29.6179 160.567 23.974 160.789 18.3843 162.965C17.5499 163.291 16.6355 163.784 16.5744 163.819C16.4465 163.903 16.3583 164.04 16.3307 164.197C16.3065 164.352 16.3462 164.509 16.4396 164.63C16.6142 164.859 16.783 165.088 16.9501 165.316L16.987 165.366C17.3644 165.884 17.7919 166.469 18.2713 166.987C20.4304 169.317 23.093 170.88 25.649 172.221C29.1638 174.057 32.7582 175.046 36.3329 175.162C36.5012 175.167 36.6694 175.171 36.8371 175.171C40.1255 175.171 42.6924 174.08 44.6711 171.848C44.6953 171.831 44.7812 171.798 44.8284 171.797C45.5844 171.852 46.3029 171.963 46.8399 172.052C46.9246 172.068 47.0289 172.119 47.094 172.178C50.3997 175.124 53.9007 177.71 57.5578 179.91C57.0035 179.745 56.4325 179.601 55.8482 179.486C51.9399 178.729 47.9514 179.204 43.5717 180.956C40.617 182.141 37.8691 183.883 35.1707 186.281C34.9483 186.477 34.9172 186.815 35.1004 187.05C36.0552 188.273 37.2975 188.958 38.3871 189.466C41.0445 190.709 44.0442 191.505 47.5608 191.901C47.5711 191.901 48.701 192 50.2856 192C51.4294 192 52.4936 191.948 53.4472 191.847C54.3588 191.751 55.268 191.593 56.1502 191.38C60.202 190.387 62.9476 188.345 64.5206 185.175C64.5489 185.148 64.6699 185.077 64.8231 185.039C65.5543 184.857 66.2124 184.728 66.8381 184.644C66.9856 184.62 67.1694 184.66 67.4011 184.754C70.1991 185.839 73.1602 186.744 76.1962 187.441C76.2388 187.451 76.2832 187.456 76.3276 187.456C76.5315 187.456 76.7194 187.343 76.8185 187.159C77.1083 186.616 77.4615 186.095 77.8677 185.611C77.9951 185.458 78.0331 185.255 77.9703 185.067C77.9104 184.885 77.7583 184.747 77.5635 184.701Z" fill="black"/>
</g>
</g>
</svg>
